<?xml version="1.0" encoding="UTF-8"?>
<svg version="1.1" xmlns="http://www.w3.org/2000/svg" width="286" height="286">
<path d="M0 0 C1.19431641 -0.01224609 2.38863281 -0.02449219 3.61914062 -0.03710938 C15.26950535 -0.05613556 25.86877482 1.74044872 36.9375 5.3125 C37.8769043 5.61236816 38.81630859 5.91223633 39.78417969 6.22119141 C48.3726021 9.06404391 56.26960693 12.8474784 64.1875 17.1875 C64.8475 17.5175 65.5075 17.8475 66.1875 18.1875 C66.1875 18.8475 66.1875 19.5075 66.1875 20.1875 C67.1775 20.496875 67.1775 20.496875 68.1875 20.8125 C87.49385266 29.66124497 105.83647298 52.7789924 113.12109375 72.31640625 C113.47300781 73.26386719 113.82492187 74.21132812 114.1875 75.1875 C114.67347656 76.37214844 115.15945313 77.55679688 115.66015625 78.77734375 C122.8297642 96.44894384 124.55011448 114.14186583 123.1875 133.1875 C122.8575 133.8475 122.5275 134.5075 122.1875 135.1875 C121.23029556 135.19780746 120.27309113 135.20811493 119.28688049 135.21873474 C110.23919637 135.31675043 101.19157671 135.41950932 92.14399815 135.52683926 C87.49323824 135.58185997 82.84247185 135.63524502 78.19165039 135.68481445 C73.69824578 135.73276758 69.20491143 135.78511857 64.71159172 135.84044075 C63.00252993 135.86072501 61.29344897 135.87945973 59.58435249 135.89657402 C57.17929333 135.92092964 54.77436306 135.95093703 52.36938477 135.98217773 C51.67238464 135.9879332 50.97538452 135.99368866 50.25726318 135.99961853 C45.12689283 136.07472256 40.35016055 136.61387105 35.1875 137.1875 C63.5675 137.5175 91.9475 137.8475 121.1875 138.1875 C122.43296405 140.67842811 121.9642578 141.59830733 121.1875 144.1875 C107.92290791 144.23376195 94.65833488 144.26933788 81.39367867 144.29112434 C75.23491703 144.3015787 69.07621043 144.31576797 62.91748047 144.33837891 C56.97825451 144.36004846 51.03908161 144.37205617 45.09981918 144.37725449 C42.82951903 144.38096086 40.55922191 144.38819805 38.28894424 144.39896011 C35.11850876 144.41339677 31.94829489 144.41548123 28.77783203 144.41455078 C27.83124725 144.42174133 26.88466248 144.42893188 25.90939331 144.43634033 C25.04840027 144.433591 24.18740723 144.43084167 23.30032349 144.42800903 C22.17481425 144.43077441 22.17481425 144.43077441 21.02656746 144.43359566 C19.1875 144.1875 19.1875 144.1875 17.1875 142.1875 C14.2175 143.1775 11.2475 144.1675 8.1875 145.1875 C45.1475 145.5175 82.1075 145.8475 120.1875 146.1875 C119.1875 152.1875 119.1875 152.1875 118.1875 153.1875 C115.12822956 153.28553082 112.09152112 153.31740898 109.03184509 153.30775452 C108.05910521 153.30860894 107.08636532 153.30946337 106.08414847 153.31034368 C102.79818684 153.31200144 99.51227535 153.30647229 96.22631836 153.30102539 C93.8813731 153.30074356 91.53642775 153.30090118 89.19148254 153.3014679 C82.80330807 153.30175602 76.4151522 153.29585693 70.02698207 153.28889394 C64.03398813 153.28329345 58.0409942 153.28227212 52.04799814 153.28124207 C40.17449198 153.27905123 28.30099267 153.27239031 16.42749023 153.26293945 C4.89070673 153.25376614 -6.64607492 153.24668491 -18.18286133 153.24243164 C-18.89350355 153.24216892 -19.60414578 153.24190619 -20.33632261 153.24163551 C-23.90126093 153.24033051 -27.46619925 153.23906679 -31.03113759 153.23782361 C-60.6249296 153.22745002 -90.21871448 153.20975674 -119.8125 153.1875 C-120.1425 150.8775 -120.4725 148.5675 -120.8125 146.1875 C-64.3825 145.6925 -64.3825 145.6925 -6.8125 145.1875 C-10.1125 143.8675 -13.4125 142.5475 -16.8125 141.1875 C-16.8125 142.1775 -16.8125 143.1675 -16.8125 144.1875 C-51.4625 144.1875 -86.1125 144.1875 -121.8125 144.1875 C-121.8125 142.2075 -121.8125 140.2275 -121.8125 138.1875 C-92.4425 137.8575 -63.0725 137.5275 -32.8125 137.1875 C-38.88211193 136.36883983 -38.88211193 136.36883983 -44.88757324 136.02928162 C-45.58853119 136.0194928 -46.28948914 136.00970398 -47.01168823 135.99961853 C-47.74968658 135.99386307 -48.48768494 135.9881076 -49.24804688 135.98217773 C-50.04900787 135.97227814 -50.84996887 135.96237854 -51.67520142 135.95217896 C-54.29385534 135.92086736 -56.91252734 135.895928 -59.53125 135.87109375 C-61.35828086 135.85049794 -63.18530725 135.82950082 -65.0123291 135.80812073 C-69.79948271 135.75317119 -74.58667736 135.70364337 -79.37390137 135.65527344 C-84.2675335 135.60485925 -89.1611067 135.54927759 -94.0546875 135.49414062 C-103.64057454 135.38689121 -113.22651296 135.28537377 -122.8125 135.1875 C-130.14403864 120.52442272 -122.50804014 94.51707982 -117.68359375 79.7265625 C-112.28927379 65.70508971 -103.72575019 50.54109634 -92.8125 40.1875 C-91.32942933 38.45527346 -89.87593007 36.7030262 -88.4375 34.93359375 C-74.27595174 19.71673781 -53.41241513 9.98590009 -33.8125 4.1875 C-32.80058594 3.87941406 -31.78867188 3.57132813 -30.74609375 3.25390625 C-20.52547724 0.28296209 -10.58591025 0.00565789 0 0 Z M-1.8125 34.1875 C-3.18345624 37.87787278 -2.41260967 39.89633835 -0.875 43.4375 C-0.30458984 44.77554688 -0.30458984 44.77554688 0.27734375 46.140625 C0.72787109 47.15382813 0.72787109 47.15382813 1.1875 48.1875 C3.47487278 47.3093857 3.47487278 47.3093857 4.375 44.5 C5.25032836 40.93135359 5.09105273 38.71956975 4.1875 35.1875 C3.12104885 33.89116379 3.12104885 33.89116379 0.625 34.125 C-0.179375 34.145625 -0.98375 34.16625 -1.8125 34.1875 Z M11.625 43.4375 C9.42034071 45.92480791 8.54346045 46.98385595 8.1875 50.1875 C9.280625 49.73375 10.37375 49.28 11.5 48.8125 C12.11488281 48.55726562 12.72976562 48.30203125 13.36328125 48.0390625 C15.45283932 47.11943308 15.45283932 47.11943308 18.1875 45.1875 C17.5275 43.8675 16.8675 42.5475 16.1875 41.1875 C13.86962704 40.96756628 13.86962704 40.96756628 11.625 43.4375 Z M-13.8125 42.1875 C-13.8125 43.5075 -13.8125 44.8275 -13.8125 46.1875 C-11.61579738 48.12228871 -11.61579738 48.12228871 -8.8125 49.1875 C-6.55921588 48.98106801 -6.55921588 48.98106801 -4.8125 48.1875 C-7.44198691 44.30797456 -7.44198691 44.30797456 -11.5625 42.375 C-12.67625 42.2821875 -12.67625 42.2821875 -13.8125 42.1875 Z M-20.8125 56.1875 C-20.8125 57.1775 -20.8125 58.1675 -20.8125 59.1875 C-17.18054504 60.39815165 -15.74718371 59.81534815 -12.125 58.75 C-10.63419922 58.31880859 -10.63419922 58.31880859 -9.11328125 57.87890625 C-7.97439453 57.53666016 -7.97439453 57.53666016 -6.8125 57.1875 C-7.1425 56.5275 -7.4725 55.8675 -7.8125 55.1875 C-9.79750447 54.64210385 -9.79750447 54.64210385 -12.125 54.4375 C-12.90488281 54.33953125 -13.68476563 54.2415625 -14.48828125 54.140625 C-17.11383568 54.19357736 -18.57723757 54.85759558 -20.8125 56.1875 Z M0.1875 54.1875 C0.5175 55.1775 0.8475 56.1675 1.1875 57.1875 C1.8475 56.8575 2.5075 56.5275 3.1875 56.1875 C3.1875 55.5275 3.1875 54.8675 3.1875 54.1875 C2.1975 54.1875 1.2075 54.1875 0.1875 54.1875 Z M10.1875 55.1875 C10.1875 55.8475 10.1875 56.5075 10.1875 57.1875 C15.31097358 60.23042394 15.31097358 60.23042394 21.0625 61.1875 C23.34602321 60.34423727 23.34602321 60.34423727 24.5 58.125 C24.726875 57.485625 24.95375 56.84625 25.1875 56.1875 C20.32946449 52.94880966 15.72739331 54.13228223 10.1875 55.1875 Z M-10.22265625 65.51953125 C-12.22957522 67.62507032 -12.72748748 69.29707447 -12.8125 72.1875 C-9.06226518 72.53689828 -9.06226518 72.53689828 -7.1875 71.1875 C-5.05640637 68.08772745 -4.59381027 64.85364819 -3.8125 61.1875 C-6.19713387 61.1875 -8.50810914 64.04340787 -10.22265625 65.51953125 Z M7.1875 62.1875 C8.26460178 66.49590713 9.22697516 69.82326723 12.1875 73.1875 C13.8375 72.8575 15.4875 72.5275 17.1875 72.1875 C16.62617066 68.6503562 15.49192253 67.19488321 12.75 64.9375 C12.13253906 64.41671875 11.51507813 63.8959375 10.87890625 63.359375 C9.25645498 61.99766464 9.25645498 61.99766464 7.1875 62.1875 Z M1.1875 64.1875 C0.26484363 69.0586042 -0.10176572 73.83832301 -0.34765625 78.77734375 C-0.39063339 79.59892471 -0.43361053 80.42050568 -0.47789001 81.26698303 C-0.56778145 83.00415426 -0.65592693 84.7414166 -0.74243164 86.47875977 C-0.87303415 89.08575909 -1.01130498 91.69226933 -1.15039062 94.29882812 C-1.66658425 104.27322789 -1.94029974 114.19924052 -1.8125 124.1875 C0.4975 124.1875 2.8075 124.1875 5.1875 124.1875 C4.5721442 104.15841902 3.47693939 84.1822567 2.1875 64.1875 C1.8575 64.1875 1.5275 64.1875 1.1875 64.1875 Z M-64.46875 92.40625 C-64.9121875 93.3240625 -65.355625 94.241875 -65.8125 95.1875 C-66.23015625 95.99832031 -66.6478125 96.80914062 -67.078125 97.64453125 C-67.40296875 98.42183594 -67.7278125 99.19914062 -68.0625 100 C-68.39765625 100.79019531 -68.7328125 101.58039063 -69.078125 102.39453125 C-69.32046875 102.98621094 -69.5628125 103.57789063 -69.8125 104.1875 C-69.1525 104.1875 -68.4925 104.1875 -67.8125 104.1875 C-67.8125 110.7875 -67.8125 117.3875 -67.8125 124.1875 C-63.8525 124.1875 -59.8925 124.1875 -55.8125 124.1875 C-55.8125 119.5675 -55.8125 114.9475 -55.8125 110.1875 C-52.1825 110.1875 -48.5525 110.1875 -44.8125 110.1875 C-44.8125 114.8075 -44.8125 119.4275 -44.8125 124.1875 C-40.8525 124.1875 -36.8925 124.1875 -32.8125 124.1875 C-32.8125 117.5875 -32.8125 110.9875 -32.8125 104.1875 C-31.8225 104.1875 -30.8325 104.1875 -29.8125 104.1875 C-31.02999937 100.75636542 -32.61776518 97.6621244 -34.39453125 94.49609375 C-34.84675049 93.68841553 -35.29896973 92.8807373 -35.76489258 92.04858398 C-36.11060303 91.43442627 -36.45631348 90.82026855 -36.8125 90.1875 C-40.8954596 90.04231818 -44.97775641 89.95346653 -49.0625 89.875 C-50.22136719 89.83310547 -51.38023438 89.79121094 -52.57421875 89.74804688 C-59.04009542 89.44625788 -59.04009542 89.44625788 -64.46875 92.40625 Z M87.9375 100.875 C84.18963546 104.32843328 80.39680832 107.32158795 76.1875 110.1875 C76.5175 111.5075 76.8475 112.8275 77.1875 114.1875 C76.1975 114.1875 75.2075 114.1875 74.1875 114.1875 C74.16060784 115.66656892 74.14115379 117.14577483 74.125 118.625 C74.11339844 119.44871094 74.10179687 120.27242187 74.08984375 121.12109375 C73.95482652 123.17913938 73.95482652 123.17913938 75.1875 124.1875 C77.52047433 124.22842937 79.85455225 124.22991723 82.1875 124.1875 C82.1875 120.8875 82.1875 117.5875 82.1875 114.1875 C85.1575 114.1875 88.1275 114.1875 91.1875 114.1875 C91.1875 117.4875 91.1875 120.7875 91.1875 124.1875 C97.1275 124.1875 103.0675 124.1875 109.1875 124.1875 C110.70619452 115.37500148 110.70619452 115.37500148 107.86181641 107.29931641 C104.09431801 103.3223307 99.82265036 100.08514348 95.1875 97.1875 C91.32803997 97.1875 90.69240941 98.26939512 87.9375 100.875 Z M32.203125 106.23046875 C30.96385888 108.34472531 30.96385888 108.34472531 30.1875 110.1875 C37.93535019 111.24288284 45.56244542 111.33700357 53.375 111.3125 C54.61958984 111.31636719 55.86417969 111.32023437 57.14648438 111.32421875 C58.95149414 111.32228516 58.95149414 111.32228516 60.79296875 111.3203125 C61.87731201 111.31918457 62.96165527 111.31805664 64.07885742 111.31689453 C67.19112116 111.18734927 70.12951351 110.76573536 73.1875 110.1875 C73.1875 109.1975 73.1875 108.2075 73.1875 107.1875 C72.56875 106.919375 71.95 106.65125 71.3125 106.375 C69.1875 105.1875 69.1875 105.1875 67.1875 102.1875 C62.85886703 101.5078237 58.49705934 101.54493405 54.12158203 101.52172852 C51.95703592 101.50019435 49.79969251 101.42013203 47.63671875 101.33789062 C38.80218279 101.01532701 38.80218279 101.01532701 32.203125 106.23046875 Z M-111.8125 114.1875 C-111.8125 114.5175 -111.8125 114.8475 -111.8125 115.1875 C-98.9425 115.1875 -86.0725 115.1875 -72.8125 115.1875 C-77.67602356 108.23960147 -77.67602356 108.23960147 -81.76928711 107.29760742 C-83.28921265 107.29531128 -83.28921265 107.29531128 -84.83984375 107.29296875 C-85.96197266 107.28845703 -87.08410156 107.28394531 -88.24023438 107.27929688 C-89.97756836 107.32666992 -89.97756836 107.32666992 -91.75 107.375 C-93.4815332 107.34696289 -93.4815332 107.34696289 -95.24804688 107.31835938 C-102.46216207 107.39699861 -107.23951049 108.29395693 -111.8125 114.1875 Z M-23.8125 112.1875 C-25.2975 115.6525 -25.2975 115.6525 -26.8125 119.1875 C-26.1525 119.8475 -25.4925 120.5075 -24.8125 121.1875 C-22.70429203 120.8689823 -22.70429203 120.8689823 -20.8125 120.1875 C-20.4825 121.5075 -20.1525 122.8275 -19.8125 124.1875 C-19.4825 123.1975 -19.1525 122.2075 -18.8125 121.1875 C-16.1725 120.8575 -13.5325 120.5275 -10.8125 120.1875 C-10.4825 120.8475 -10.1525 121.5075 -9.8125 122.1875 C-8.83004001 119.06149094 -8.6402396 117.60584669 -9.90625 114.53125 C-11.62702165 111.8880626 -11.62702165 111.8880626 -14.73046875 111.69921875 C-16.34888672 111.78623047 -16.34888672 111.78623047 -18 111.875 C-19.08667969 111.92011719 -20.17335938 111.96523437 -21.29296875 112.01171875 C-22.12441406 112.06972656 -22.95585938 112.12773437 -23.8125 112.1875 Z M35.1875 114.1875 C35.1875 117.4875 35.1875 120.7875 35.1875 124.1875 C36.5075 124.1875 37.8275 124.1875 39.1875 124.1875 C39.1875 121.2175 39.1875 118.2475 39.1875 115.1875 C37.8675 114.8575 36.5475 114.5275 35.1875 114.1875 Z M50.1875 114.1875 C50.1875 117.4875 50.1875 120.7875 50.1875 124.1875 C51.1775 124.1875 52.1675 124.1875 53.1875 124.1875 C53.1875 121.2175 53.1875 118.2475 53.1875 115.1875 C52.1975 114.8575 51.2075 114.5275 50.1875 114.1875 Z M64.1875 114.1875 C64.1875 117.4875 64.1875 120.7875 64.1875 124.1875 C65.8375 124.1875 67.4875 124.1875 69.1875 124.1875 C69.1875 120.8875 69.1875 117.5875 69.1875 114.1875 C67.5375 114.1875 65.8875 114.1875 64.1875 114.1875 Z M-111.8125 119.1875 C-111.8125 120.8375 -111.8125 122.4875 -111.8125 124.1875 C-108.1825 124.1875 -104.5525 124.1875 -100.8125 124.1875 C-100.8125 122.5375 -100.8125 120.8875 -100.8125 119.1875 C-104.4425 119.1875 -108.0725 119.1875 -111.8125 119.1875 Z M-93.8125 119.1875 C-93.8125 120.8375 -93.8125 122.4875 -93.8125 124.1875 C-91.1725 124.1875 -88.5325 124.1875 -85.8125 124.1875 C-85.8125 122.5375 -85.8125 120.8875 -85.8125 119.1875 C-88.4525 119.1875 -91.0925 119.1875 -93.8125 119.1875 Z M-78.8125 119.1875 C-78.8125 120.8375 -78.8125 122.4875 -78.8125 124.1875 C-77.1625 123.8575 -75.5125 123.5275 -73.8125 123.1875 C-73.8125 121.8675 -73.8125 120.5475 -73.8125 119.1875 C-75.4625 119.1875 -77.1125 119.1875 -78.8125 119.1875 Z M12.1875 119.1875 C12.1875 120.8375 12.1875 122.4875 12.1875 124.1875 C17.4675 124.1875 22.7475 124.1875 28.1875 124.1875 C27.8575 122.5375 27.5275 120.8875 27.1875 119.1875 C22.2375 119.1875 17.2875 119.1875 12.1875 119.1875 Z " fill="#2C5838" transform="translate(145.8125,29.8125)"/>
<path d="M0 0 C2.12698849 0.02187382 4.25397722 0.04372395 6.38096619 0.06555176 C27.38960553 0.28270257 48.3979687 0.52427242 69.40625 0.7734375 C68.53125 5.6484375 68.53125 5.6484375 67.40625 6.7734375 C65.35146547 6.89724588 63.2924604 6.95141953 61.23413086 6.97875977 C60.59024918 6.98865936 59.94636749 6.99855896 59.28297424 7.00875854 C57.14571869 7.04045278 55.00844087 7.06516199 52.87109375 7.08984375 C51.39278064 7.11040646 49.91447351 7.13140274 48.43617249 7.15281677 C44.53832829 7.20810809 40.64043042 7.25748607 36.74249268 7.30566406 C32.76773277 7.35582769 28.79305116 7.41154051 24.81835938 7.46679688 C17.01438915 7.57446474 9.21035398 7.67589037 1.40625 7.7734375 C5.11579643 8.62346146 8.58757869 8.92176577 12.38989258 8.97875977 C13.57073929 8.99870499 14.751586 9.01865021 15.96821594 9.03919983 C17.86533577 9.06426857 17.86533577 9.06426857 19.80078125 9.08984375 C21.10327316 9.11062485 22.40576508 9.13140594 23.74772644 9.15281677 C27.19834263 9.20781934 30.64901635 9.25732409 34.09973145 9.30566406 C37.62578406 9.35603914 41.15175387 9.41164137 44.67773438 9.46679688 C51.58716771 9.57411128 58.49667595 9.67561475 65.40625 9.7734375 C66.03125 11.5859375 66.03125 11.5859375 66.40625 13.7734375 C65.74625 14.7634375 65.08625 15.7534375 64.40625 16.7734375 C63.74625 16.7734375 63.08625 16.7734375 62.40625 16.7734375 C62.40625 18.4234375 62.40625 20.0734375 62.40625 21.7734375 C59.40625 22.7734375 59.40625 22.7734375 57.40625 22.7734375 C57.73625 23.1034375 58.06625 23.4334375 58.40625 23.7734375 C58.11894945 26.11288486 57.78688221 28.4473518 57.40625 30.7734375 C56.08625 30.7734375 54.76625 30.7734375 53.40625 30.7734375 C52.03985658 29.1337654 50.7113081 27.46233622 49.40625 25.7734375 C47.44773656 24.37987986 45.45497887 23.03061203 43.40625 21.7734375 C44.14681641 22.73443359 44.14681641 22.73443359 44.90234375 23.71484375 C51.53093031 32.66410246 51.53093031 32.66410246 51.40625 38.7734375 C50.74625 39.7634375 50.08625 40.7534375 49.40625 41.7734375 C48.08625 41.7734375 46.76625 41.7734375 45.40625 41.7734375 C44.99375 40.91621094 44.58125 40.05898437 44.15625 39.17578125 C40.54730321 32.03038883 37.03389609 26.50747042 30.40625 21.7734375 C30.07625 22.1034375 29.74625 22.4334375 29.40625 22.7734375 C29.86515625 23.4746875 30.3240625 24.1759375 30.796875 24.8984375 C41.5982081 41.59965842 41.5982081 41.59965842 41.40625 51.7734375 C40.41625 52.1034375 39.42625 52.4334375 38.40625 52.7734375 C38.40625 53.4334375 38.40625 54.0934375 38.40625 54.7734375 C36.75625 54.7734375 35.10625 54.7734375 33.40625 54.7734375 C32.98666016 53.24976563 32.98666016 53.24976563 32.55859375 51.6953125 C28.89198242 38.88871986 24.56116981 26.80398175 12.40625 19.7734375 C11.74625 19.7734375 11.08625 19.7734375 10.40625 19.7734375 C11.23125 20.5984375 12.05625 21.4234375 12.90625 22.2734375 C16.19966633 26.10007362 18.41059998 30.28625792 20.65625 34.7734375 C20.99720703 35.44955078 21.33816406 36.12566406 21.68945312 36.82226562 C24.78741085 43.17215511 26.59613443 49.40090507 27.28125 56.4609375 C27.40242187 57.55792969 27.52359375 58.65492188 27.6484375 59.78515625 C27.40625 62.7734375 27.40625 62.7734375 25.7265625 65.16796875 C22.98746809 67.06320074 21.65261029 66.91175951 18.40625 66.7734375 C18.28096924 66.13954102 18.15568848 65.50564453 18.02661133 64.85253906 C14.79052761 47.80737049 14.79052761 47.80737049 8.40625 31.7734375 C8.02855469 31.03351563 7.65085938 30.29359375 7.26171875 29.53125 C3.36984753 22.6326154 -2.625487 17.47532722 -9.59375 13.7734375 C-9.59375 14.4334375 -9.59375 15.0934375 -9.59375 15.7734375 C-8.60375 16.1034375 -7.61375 16.4334375 -6.59375 16.7734375 C-3.92281406 20.2204323 -1.79633568 24.01498278 0.40625 27.7734375 C0.95023438 28.66289062 1.49421875 29.55234375 2.0546875 30.46875 C9.34513985 43.45833768 11.28232545 59.07483822 10.40625 73.7734375 C7.43625 74.7634375 4.46625 75.7534375 1.40625 76.7734375 C-0.41039241 74.95679509 0.05992858 72.38388096 -0.13745117 69.94604492 C-1.71939252 50.8897361 -5.54229119 31.44319314 -18.59375 16.7734375 C-19.92276064 15.76769972 -21.25448801 14.76548342 -22.59375 13.7734375 C-22.59375 13.1134375 -22.59375 12.4534375 -22.59375 11.7734375 C-24.90375 11.1134375 -27.21375 10.4534375 -29.59375 9.7734375 C-29.01367188 10.40507812 -28.43359375 11.03671875 -27.8359375 11.6875 C-21.54531472 18.89161256 -17.96296864 25.79915787 -14.59375 34.7734375 C-14.20316406 35.70027344 -13.81257812 36.62710938 -13.41015625 37.58203125 C-10.35476127 45.11419542 -9.34076288 52.72122073 -8.59375 60.7734375 C-8.52526855 61.47823242 -8.45678711 62.18302734 -8.38623047 62.90917969 C-7.10968509 76.57282931 -7.10968509 76.57282931 -9.59375 82.7734375 C-14.04875 83.2684375 -14.04875 83.2684375 -18.59375 83.7734375 C-18.63338867 83.08531982 -18.67302734 82.39720215 -18.71386719 81.68823242 C-20.64088652 46.12108379 -20.64088652 46.12108379 -37.59375 15.7734375 C-38.46 14.7834375 -39.32625 13.7934375 -40.21875 12.7734375 C-42.90222734 10.51366711 -45.21603145 9.63750504 -48.59375 8.7734375 C-48.08585937 9.27230469 -47.57796875 9.77117187 -47.0546875 10.28515625 C-38.2125386 19.50814677 -34.42013029 30.19595694 -31.453125 42.36328125 C-30.66929347 45.71767574 -30.66929347 45.71767574 -29.546875 48.65234375 C-27.0631393 56.78556023 -27.43945936 65.34749727 -27.46875 73.7734375 C-27.46488281 74.91683594 -27.46101562 76.06023437 -27.45703125 77.23828125 C-27.45896484 78.86443359 -27.45896484 78.86443359 -27.4609375 80.5234375 C-27.46206543 81.50828125 -27.46319336 82.493125 -27.46435547 83.5078125 C-27.59375 85.7734375 -27.59375 85.7734375 -28.59375 86.7734375 C-30.10844448 87.00536615 -31.63129562 87.18558988 -33.15625 87.3359375 C-33.98253906 87.41972656 -34.80882812 87.50351562 -35.66015625 87.58984375 C-36.29824219 87.65042969 -36.93632812 87.71101563 -37.59375 87.7734375 C-38.72843726 84.19345523 -38.62557736 80.94712135 -38.53125 77.2109375 C-38.38882571 63.55007431 -40.07593855 50.35716597 -43.69140625 37.19140625 C-44.51885307 34.05713799 -45.11778982 30.97758178 -45.59375 27.7734375 C-46.25375 27.7734375 -46.91375 27.7734375 -47.59375 27.7734375 C-48.08875 26.6596875 -48.58375 25.5459375 -49.09375 24.3984375 C-52.25023767 18.06283501 -56.67014516 11.72250739 -62.59375 7.7734375 C-63.58375 7.7734375 -64.57375 7.7734375 -65.59375 7.7734375 C-65.07425781 8.43988281 -64.55476563 9.10632813 -64.01953125 9.79296875 C-52.3851285 25.1693051 -47.35107814 43.40964378 -47.49609375 62.67578125 C-47.4975087 63.3983461 -47.49892365 64.12091095 -47.50038147 64.8653717 C-47.50592775 67.14727115 -47.5184698 69.42906829 -47.53125 71.7109375 C-47.53627196 73.26887878 -47.54083364 74.82682162 -47.54492188 76.38476562 C-47.5558795 80.18102831 -47.57310628 83.97721563 -47.59375 87.7734375 C-50.56375 87.7734375 -53.53375 87.7734375 -56.59375 87.7734375 C-56.60833252 86.99444092 -56.62291504 86.21544434 -56.63793945 85.4128418 C-56.77325663 46.20265581 -56.77325663 46.20265581 -73.59375 11.7734375 C-75.69999361 10.93953678 -75.69999361 10.93953678 -77.59375 10.7734375 C-77.79014072 13.12290777 -77.79014072 13.12290777 -75.40625 15.7734375 C-65.58906893 31.14067265 -65.43017791 52.03159816 -65.40625 69.5859375 C-65.40507172 70.26998657 -65.40389343 70.95403564 -65.40267944 71.65881348 C-65.40496922 83.39587595 -65.40496922 83.39587595 -66.59375 85.7734375 C-68.92669775 85.81585473 -71.26077567 85.81436687 -73.59375 85.7734375 C-75.38654627 83.98064123 -74.7666293 81.2740195 -74.8046875 78.8515625 C-74.83071045 77.60834229 -74.8567334 76.36512207 -74.88354492 75.08422852 C-74.89678802 74.4215799 -74.91003113 73.75893127 -74.92367554 73.07620239 C-74.75263803 42.00119699 -74.75263803 42.00119699 -87.59375 14.7734375 C-89.68790804 13.97719928 -89.68790804 13.97719928 -91.59375 13.7734375 C-91.26761719 14.54945313 -90.94148438 15.32546875 -90.60546875 16.125 C-82.08278184 37.19288092 -81.41975316 59.3311009 -83.59375 81.7734375 C-90.46875 80.8984375 -90.46875 80.8984375 -91.59375 79.7734375 C-91.64490021 78.09192161 -91.6289933 76.40830512 -91.5859375 74.7265625 C-91.39117301 63.79240109 -91.32689847 53.05383137 -92.90625 42.2109375 C-93.02403809 41.3869043 -93.14182617 40.56287109 -93.26318359 39.71386719 C-94.14915999 34.18020156 -95.68088672 29.03381152 -97.59375 23.7734375 C-97.82932617 23.08950928 -98.06490234 22.40558105 -98.30761719 21.70092773 C-99.07088555 19.549991 -99.07088555 19.549991 -100.59375 16.7734375 C-102.63369047 16.04550513 -102.63369047 16.04550513 -104.59375 15.7734375 C-104.39676514 16.31508545 -104.19978027 16.8567334 -103.99682617 17.41479492 C-102.06368888 22.93254981 -100.73956212 28.30240896 -99.90625 34.0859375 C-99.77959961 34.96096924 -99.65294922 35.83600098 -99.52246094 36.73754883 C-95.55260931 67.69115611 -95.55260931 67.69115611 -99.59375 75.7734375 C-106.46875 73.8984375 -106.46875 73.8984375 -107.59375 72.7734375 C-107.65715816 70.96072117 -107.65291034 69.14557716 -107.62109375 67.33203125 C-107.60054932 65.63119385 -107.60054932 65.63119385 -107.57958984 63.89599609 C-107.5636377 62.67992676 -107.54768555 61.46385742 -107.53125 60.2109375 C-107.4620752 49.86591413 -107.77680079 39.96577587 -109.59375 29.7734375 C-109.84511719 28.35998047 -109.84511719 28.35998047 -110.1015625 26.91796875 C-110.81874958 23.3377253 -111.5498788 20.8392443 -113.59375 17.7734375 C-116.15657742 17.04378384 -116.15657742 17.04378384 -118.59375 16.7734375 C-118.40039062 17.34707031 -118.20703125 17.92070312 -118.0078125 18.51171875 C-113.19417542 34.21561397 -112.43226333 51.56228746 -114.59375 67.7734375 C-119.34375 67.0234375 -119.34375 67.0234375 -121.59375 64.7734375 C-121.86499023 62.24584961 -121.86499023 62.24584961 -121.90234375 59.05078125 C-121.92554688 57.87950684 -121.94875 56.70823242 -121.97265625 55.50146484 C-121.99199219 54.25059082 -122.01132813 52.9997168 -122.03125 51.7109375 C-121.98205204 34.33887325 -121.98205204 34.33887325 -126.59375 17.7734375 C-127.91375 18.1034375 -129.23375 18.4334375 -130.59375 18.7734375 C-130.4508252 19.48016602 -130.30790039 20.18689453 -130.16064453 20.91503906 C-128.67984344 28.85834065 -128.35014225 36.45811073 -128.46875 44.5234375 C-128.47777344 45.709375 -128.48679688 46.8953125 -128.49609375 48.1171875 C-128.51936503 51.00282657 -128.55205316 53.88801605 -128.59375 56.7734375 C-131.8359864 56.21443122 -133.61255529 55.4485417 -135.59375 52.7734375 C-136.01025391 50.61962891 -136.01025391 50.61962891 -136.0703125 48.125 C-136.10068604 47.20734863 -136.13105957 46.28969727 -136.16235352 45.34423828 C-136.18096436 44.37212402 -136.1995752 43.40000977 -136.21875 42.3984375 C-136.28099712 40.40880491 -136.34479474 38.41922021 -136.41015625 36.4296875 C-136.43867676 35.46289062 -136.46719727 34.49609375 -136.49658203 33.5 C-136.68388091 28.24433686 -137.12926672 23.01122763 -137.59375 17.7734375 C-139.24375 17.7734375 -140.89375 17.7734375 -142.59375 17.7734375 C-142.34818359 19.22943359 -142.34818359 19.22943359 -142.09765625 20.71484375 C-141.47746159 25.05620638 -141.48248583 29.33341521 -141.53125 33.7109375 C-141.53576172 34.49017578 -141.54027344 35.26941406 -141.54492188 36.07226562 C-141.55658092 37.97269018 -141.57451123 39.87307456 -141.59375 41.7734375 C-144.57112577 41.45155904 -146.14640325 41.2516933 -148.22973633 39.02441406 C-149.7769751 36.47106853 -150.0105546 34.96913397 -150.10546875 32.0078125 C-150.15864258 30.67363281 -150.15864258 30.67363281 -150.21289062 29.3125 C-150.23544922 28.39210937 -150.25800781 27.47171875 -150.28125 26.5234375 C-150.33249023 25.11964844 -150.33249023 25.11964844 -150.38476562 23.6875 C-150.46707162 21.38293217 -150.5362763 19.07873631 -150.59375 16.7734375 C-152.24375 16.7734375 -153.89375 16.7734375 -155.59375 16.7734375 C-155.26375 18.4234375 -154.93375 20.0734375 -154.59375 21.7734375 C-155.91375 21.7734375 -157.23375 21.7734375 -158.59375 21.7734375 C-160.24375 18.8034375 -161.89375 15.8334375 -163.59375 12.7734375 C-162.93375 11.7834375 -162.27375 10.7934375 -161.59375 9.7734375 C-159.34356689 9.38143921 -159.34356689 9.38143921 -156.50488281 9.35693359 C-154.91247772 9.33208389 -154.91247772 9.33208389 -153.28790283 9.30673218 C-152.13586365 9.30347931 -150.98382446 9.30022644 -149.796875 9.296875 C-148.61534851 9.28129547 -147.43382202 9.26571594 -146.2164917 9.24966431 C-142.42558506 9.20199273 -138.63486262 9.17435143 -134.84375 9.1484375 C-131.0670519 9.11190121 -127.29045699 9.07117427 -123.51385498 9.02578735 C-121.16109213 8.99866208 -118.80825459 8.9772672 -116.4553833 8.96224976 C-114.84406525 8.94685654 -114.84406525 8.94685654 -113.20019531 8.93115234 C-111.79027313 8.92140884 -111.79027313 8.92140884 -110.35186768 8.91146851 C-107.37202289 8.76234109 -104.52544191 8.31576437 -101.59375 7.7734375 C-102.37857758 7.76535065 -103.16340515 7.75726379 -103.97201538 7.74893188 C-111.35904568 7.67107378 -118.74587593 7.58381024 -126.13266563 7.48591042 C-129.93052881 7.43590966 -133.72836366 7.38958025 -137.52636719 7.3515625 C-141.18989954 7.31475701 -144.853197 7.26841057 -148.51652908 7.21537399 C-149.91595983 7.19680471 -151.31544098 7.18170614 -152.71494675 7.17009354 C-154.6712295 7.15327507 -156.62738381 7.12310397 -158.58349609 7.09228516 C-160.25561661 7.07229965 -160.25561661 7.07229965 -161.96151733 7.0519104 C-164.59375 6.7734375 -164.59375 6.7734375 -166.59375 4.7734375 C-166.59375 3.4534375 -166.59375 2.1334375 -166.59375 0.7734375 C-144.26447638 0.51170921 -121.93510982 0.25931198 -99.60545158 0.03248596 C-97.51676151 0.01122465 -95.42807351 -0.01024147 -93.33938789 -0.03193665 C-62.22093554 -0.35420557 -31.11824565 -0.3266178 0 0 Z " fill="#2E5438" transform="translate(193.59375,184.2265625)"/>
<path d="M0 0 C0.66551376 0.00639795 1.33102753 0.0127959 2.01670837 0.01938772 C18.82385785 0.18133621 35.63076993 0.3617369 52.4375 0.5625 C51.5625 6.4375 51.5625 6.4375 50.4375 7.5625 C47.37822956 7.66053082 44.34152112 7.69240898 41.28184509 7.68275452 C40.30910521 7.68360894 39.33636532 7.68446337 38.33414847 7.68534368 C35.04818684 7.68700144 31.76227535 7.68147229 28.47631836 7.67602539 C26.1313731 7.67574356 23.78642775 7.67590118 21.44148254 7.6764679 C15.05330807 7.67675602 8.6651522 7.67085693 2.27698207 7.66389394 C-3.71601187 7.65829345 -9.7090058 7.65727212 -15.70200186 7.65624207 C-27.57550802 7.65405123 -39.44900733 7.64739031 -51.32250977 7.63793945 C-62.85929327 7.62876614 -74.39607492 7.62168491 -85.93286133 7.61743164 C-86.64350355 7.61716892 -87.35414578 7.61690619 -88.08632261 7.61663551 C-91.65126093 7.61533051 -95.21619925 7.61406679 -98.78113759 7.61282361 C-128.3749296 7.60245002 -157.96871448 7.58475674 -187.5625 7.5625 C-187.8925 5.2525 -188.2225 2.9425 -188.5625 0.5625 C-170.89604411 0.35395824 -153.22938398 0.1682242 -135.5625 0 C-134.8948432 -0.00638284 -134.2271864 -0.01276568 -133.53929758 -0.01934195 C-89.02078773 -0.44334456 -44.51838254 -0.42970663 0 0 Z " fill="#406148" transform="translate(213.5625,175.4375)"/>
<path d="M0 0 C11.3261163 -0.02312255 22.65222703 -0.04091464 33.97836208 -0.05181217 C39.23696664 -0.05704119 44.4955551 -0.06413918 49.75415039 -0.07543945 C54.82453127 -0.08626766 59.89489662 -0.09227669 64.96528816 -0.09487724 C66.90426948 -0.09673161 68.84324991 -0.10035245 70.78222466 -0.10573006 C73.4882176 -0.1129396 76.19414556 -0.11399098 78.90014648 -0.11352539 C80.11502495 -0.1189183 80.11502495 -0.1189183 81.35444641 -0.12442017 C86.88594784 -0.11405216 86.88594784 -0.11405216 88 1 C89.9230873 1.2285321 91.85360228 1.39518857 93.78515625 1.53515625 C94.95498047 1.62216797 96.12480469 1.70917969 97.33007812 1.79882812 C99.17762695 1.9293457 99.17762695 1.9293457 101.0625 2.0625 C102.29806641 2.15337891 103.53363281 2.24425781 104.80664062 2.33789062 C107.87081994 2.56267598 110.93524802 2.7831856 114 3 C114 3.33 114 3.66 114 4 C96.675 4.495 96.675 4.495 79 5 C79 5.33 79 5.66 79 6 C70.39152713 7.13699396 61.81311583 7.12944129 53.1484375 7.09765625 C51.63815356 7.09578721 50.127869 7.09436561 48.61758423 7.09336853 C44.67541784 7.08958158 40.7332893 7.07978472 36.7911377 7.06866455 C32.75529492 7.05836747 28.71944592 7.05385327 24.68359375 7.04882812 C16.78904529 7.03815837 8.89452737 7.02112886 1 7 C0.67 4.69 0.34 2.38 0 0 Z " fill="#32553E" transform="translate(25,176)"/>
<path d="M0 0 C16.17 0 32.34 0 49 0 C49.495 1.98 49.495 1.98 50 4 C49.34 4.99 48.68 5.98 48 7 C47.34 7 46.68 7 46 7 C46 8.65 46 10.3 46 12 C43 13 43 13 41 13 C41.495 13.495 41.495 13.495 42 14 C41.71269945 16.33944736 41.38063221 18.6739143 41 21 C39.68 21 38.36 21 37 21 C35.63360658 19.3603279 34.3050581 17.68889872 33 16 C31.04148656 14.60644236 29.04872887 13.25717453 27 12 C27.49371094 12.64066406 27.98742187 13.28132812 28.49609375 13.94140625 C35.12468031 22.89066496 35.12468031 22.89066496 35 29 C34.34 29.99 33.68 30.98 33 32 C31.68 32 30.36 32 29 32 C28.61070312 31.154375 28.22140625 30.30875 27.8203125 29.4375 C23.79298915 21.27149874 19.74078966 16.15533476 12 11 C12.33 9.02 12.66 7.04 13 5 C14.65 5 16.3 5 18 5 C18.33 5.66 18.66 6.32 19 7 C19.53625 6.835 20.0725 6.67 20.625 6.5 C25.23540271 5.5293889 28.92658333 5.49328205 33 8 C33.33 7.34 33.66 6.68 34 6 C37.81984796 5.22188282 40.26840331 4.75613444 44 6 C44 4.68 44 3.36 44 2 C43.34 2.33 42.68 2.66 42 3 C38.93757679 3.08711775 35.89813535 3.1154846 32.8359375 3.09765625 C31.92872955 3.0962413 31.02152161 3.09482635 30.08682251 3.09336853 C27.18284845 3.08776096 24.27895085 3.07520718 21.375 3.0625 C19.40885528 3.05748598 17.44270935 3.0529229 15.4765625 3.04882812 C10.6510121 3.03778906 5.82551903 3.02051935 1 3 C0.67 2.01 0.34 1.02 0 0 Z " fill="#35593F" transform="translate(210,194)"/>
<path d="M0 0 C30.69 0 61.38 0 93 0 C92 5 92 5 91 6 C88.47458998 6.09504251 85.97662874 6.12557158 83.45092773 6.11352539 C82.26564987 6.11374443 82.26564987 6.11374443 81.056427 6.1139679 C78.43212178 6.11326857 75.80788664 6.10547527 73.18359375 6.09765625 C71.36898335 6.09579214 69.55437244 6.0943682 67.73976135 6.09336853 C62.9540977 6.08954279 58.1684642 6.07971204 53.3828125 6.06866455 C48.50325936 6.05845163 43.62370136 6.05387117 38.74414062 6.04882812 C29.16274714 6.03808982 19.58137607 6.02101273 10 6 C9.67 4.68 9.34 3.36 9 2 C6.03 1.67 3.06 1.34 0 1 C0 0.67 0 0.34 0 0 Z " fill="#3D6149" transform="translate(170,185)"/>
<path d="M0 0 C1.51314099 0.0037359 3.02628442 0.00658015 4.53942871 0.00857544 C8.4981163 0.01616649 12.45665424 0.03577538 16.4152832 0.0579834 C20.46433489 0.07854006 24.51341104 0.08759804 28.5625 0.09765625 C36.48965157 0.11902612 44.4166821 0.15310652 52.34375 0.1953125 C51.46875 6.0703125 51.46875 6.0703125 50.34375 7.1953125 C48.13507169 7.28964235 45.92333479 7.31273681 43.71264648 7.30883789 C43.01999695 7.30898392 42.32734741 7.30912994 41.6137085 7.3092804 C39.31405554 7.30858124 37.01448263 7.30078878 34.71484375 7.29296875 C33.12443588 7.29110458 31.53402743 7.28968067 29.94361877 7.28868103 C25.7497907 7.28485579 21.55599705 7.27502545 17.36218262 7.26397705 C13.08586086 7.25376307 8.80953356 7.24918344 4.53320312 7.24414062 C-3.86329708 7.23340319 -12.25976926 7.21632669 -20.65625 7.1953125 C-20.65625 6.5353125 -20.65625 5.8753125 -20.65625 5.1953125 C-37.48625 4.8653125 -54.31625 4.5353125 -71.65625 4.1953125 C-68.00836537 2.37137018 -67.04901832 1.9474113 -63.29003906 2 C-62.43524963 2.00660645 -61.58046021 2.01321289 -60.69976807 2.02001953 C-59.78306335 2.03661621 -58.86635864 2.05321289 -57.921875 2.0703125 C-56.9698822 2.07788574 -56.0178894 2.08545898 -55.03704834 2.09326172 C-50.97077249 2.12588313 -46.90490128 2.181959 -42.83886719 2.23632812 C-39.86655567 2.27268082 -36.89431124 2.29676101 -33.921875 2.3203125 C-32.55896332 2.34520752 -32.55896332 2.34520752 -31.16851807 2.37060547 C-26.44193888 2.40660496 -22.61785696 1.94012717 -18.04266357 0.6494751 C-12.15200012 -0.47158751 -5.98146555 -0.04356455 0 0 Z " fill="#30563C" transform="translate(213.65625,175.8046875)"/>
<path d="M0 0 C7.26 0 14.52 0 22 0 C22 0.33 22 0.66 22 1 C20.6674398 1.17273929 19.33388058 1.33777128 18 1.5 C17.2575 1.5928125 16.515 1.685625 15.75 1.78125 C12.15705455 2.06705248 8.60461529 2.01287363 5 2 C16.87452454 2.82682172 28.73001721 3.27642696 40.62890625 3.55224609 C42.80220564 3.60374384 44.97529902 3.66091186 47.1484375 3.71875 C48.41864746 3.74904297 49.68885742 3.77933594 50.99755859 3.81054688 C54 4 54 4 56 5 C56 4.34 56 3.68 56 3 C65.9 3 75.8 3 86 3 C88 9 88 9 88 11 C88.99 11.99 88.99 11.99 90 13 C90.125 15.625 90.125 15.625 90 18 C88.515 18.495 88.515 18.495 87 19 C86.26676204 21.01508358 86.26676204 21.01508358 86 23 C85.34 23 84.68 23 84 23 C83.78085938 22.44570312 83.56171875 21.89140625 83.3359375 21.3203125 C81.2212507 16.35136465 81.2212507 16.35136465 76.75 13.5 C75.8425 13.335 74.935 13.17 74 13 C73.67 13.99 73.34 14.98 73 16 C70.70986347 12.5647952 70.82157027 11.014669 71 7 C71.66 6.67 72.32 6.34 73 6 C72.11494781 6.00444122 71.22989563 6.00888245 70.31802368 6.01345825 C61.9893207 6.05348307 53.66064988 6.08395792 45.33187294 6.10362434 C41.04965752 6.11407483 36.76752136 6.12825697 32.48535156 6.15087891 C28.35511874 6.17256238 24.22496231 6.18455909 20.09467697 6.18975449 C18.51656262 6.19345835 16.93845259 6.2006908 15.36037064 6.21146011 C13.15503049 6.22591549 10.95000858 6.22798048 8.74462891 6.22705078 C7.48776276 6.231492 6.23089661 6.23593323 4.9359436 6.24050903 C2 6 2 6 0 4 C0 2.68 0 1.36 0 0 Z " fill="#30583B" transform="translate(27,185)"/>
<path d="M0 0 C31.02 0 62.04 0 94 0 C95 2 95 2 94 6 C62.32 6 30.64 6 -2 6 C-2 5.67 -2 5.34 -2 5 C29.02 5 60.04 5 92 5 C92 4.34 92 3.68 92 3 C63.62 3 35.24 3 6 3 C6 2.67 6 2.34 6 2 C3.03 1.505 3.03 1.505 0 1 C0 0.67 0 0.34 0 0 Z " fill="#294D34" transform="translate(173,168)"/>
<path d="M0 0 C0.495 0.99 0.495 0.99 1 2 C1.99 2.33 2.98 2.66 4 3 C4 8.94 4 14.88 4 21 C5.32 21.33 6.64 21.66 8 22 C7.01 22.66 6.02 23.32 5 24 C4.01 23.67 3.02 23.34 2 23 C1.505 18.545 1.505 18.545 1 14 C0.34 14 -0.32 14 -1 14 C-1.33 14.99 -1.66 15.98 -2 17 C-2.94875 16.938125 -3.8975 16.87625 -4.875 16.8125 C-6.421875 16.9053125 -6.421875 16.9053125 -8 17 C-8.66 17.99 -9.32 18.98 -10 20 C-10 19.01 -10 18.02 -10 17 C-11.98 17.99 -11.98 17.99 -14 19 C-14 18.01 -14 17.02 -14 16 C-17.96 16.33 -21.92 16.66 -26 17 C-25.67 18.32 -25.34 19.64 -25 21 C-25.66 21.66 -26.32 22.32 -27 23 C-29 20 -29 20 -29 16 C-32.96 16 -36.92 16 -41 16 C-40.67 14.68 -40.34 13.36 -40 12 C-27.46 11.67 -14.92 11.34 -2 11 C-3.32 9.35 -4.64 7.7 -6 6 C-4.68 5.67 -3.36 5.34 -2 5 C-1.505 6.98 -1.505 6.98 -1 9 C-0.01 8.67 0.98 8.34 2 8 C2 6.35 2 4.7 2 3 C1.34 3 0.68 3 0 3 C0 2.01 0 1.02 0 0 Z " fill="#496551" transform="translate(74,133)"/>
<path d="M0 0 C1.25425781 0.01804688 2.50851563 0.03609375 3.80078125 0.0546875 C5.22970703 0.08949219 5.22970703 0.08949219 6.6875 0.125 C6.0275 1.775 5.3675 3.425 4.6875 5.125 C5.6775 5.125 6.6675 5.125 7.6875 5.125 C8.59233637 10.48989595 8.81053662 15.62817457 8.75 21.0625 C8.74548828 21.84173828 8.74097656 22.62097656 8.73632812 23.42382812 C8.72466908 25.32425268 8.70673877 27.22463706 8.6875 29.125 C5.71012423 28.80312154 4.13484675 28.6032558 2.05151367 26.37597656 C0.5042749 23.82263103 0.2706954 22.32069647 0.17578125 19.359375 C0.14033203 18.46992188 0.10488281 17.58046875 0.06835938 16.6640625 C0.04580078 15.74367187 0.02324219 14.82328125 0 13.875 C-0.05124023 12.47121094 -0.05124023 12.47121094 -0.10351562 11.0390625 C-0.18582162 8.73449467 -0.2550263 6.43029881 -0.3125 4.125 C-1.9625 4.125 -3.6125 4.125 -5.3125 4.125 C-4.9825 5.775 -4.6525 7.425 -4.3125 9.125 C-5.6325 9.125 -6.9525 9.125 -8.3125 9.125 C-10.2925 5.66 -10.2925 5.66 -12.3125 2.125 C-8.09353134 0.07601713 -4.65877854 -0.08707997 0 0 Z " fill="#2C5237" transform="translate(43.3125,196.875)"/>
<path d="M0 0 C29.7 0 59.4 0 90 0 C86 4 86 4 82.21612549 4.4430542 C80.6637192 4.43691745 79.11130464 4.40838651 77.55957031 4.36230469 C76.71042557 4.35313522 75.86128082 4.34396576 74.98640442 4.33451843 C72.18299708 4.2994792 69.38100993 4.23580774 66.578125 4.171875 C64.63330676 4.14197379 62.68846027 4.11386029 60.74359131 4.08746338 C55.62712137 4.01321224 50.51139596 3.91466922 45.39544678 3.81109619 C40.17401983 3.7096768 34.95225406 3.63118835 29.73046875 3.55078125 C19.48651659 3.38965444 9.24320458 3.20286786 -1 3 C-0.67 2.01 -0.34 1.02 0 0 Z " fill="#295033" transform="translate(27,168)"/>
<path d="M0 0 C0 0.99 0 1.98 0 3 C-1.32 3 -2.64 3 -4 3 C-4 6.3 -4 9.6 -4 13 C-2.35 13 -0.7 13 1 13 C1 9.7 1 6.4 1 3 C1.66 3 2.32 3 3 3 C3 6.96 3 10.92 3 15 C-0.99992451 15.16867152 -4.99992364 15.33500242 -9 15.5 C-10.12535156 15.54769531 -11.25070313 15.59539062 -12.41015625 15.64453125 C-29.91650391 16.36116536 -29.91650391 16.36116536 -34 15 C-33.67 14.34 -33.34 13.68 -33 13 C-29.98046875 12.55078125 -29.98046875 12.55078125 -26.1875 12.3125 C-24.94355469 12.22613281 -23.69960937 12.13976562 -22.41796875 12.05078125 C-19 12 -19 12 -15 13 C-15.495 8.05 -15.495 8.05 -16 3 C-11.14640505 -1.01676824 -5.95027665 -0.28136159 0 0 Z " fill="#3A5E44" transform="translate(214,141)"/>
<path d="M0 0 C0.66 0 1.32 0 2 0 C4.32139805 6.96419414 3 14.65909482 3 22 C29.4 22 55.8 22 83 22 C83 22.66 83 23.32 83 24 C55.94 24 28.88 24 1 24 C-0.25248502 21.49502996 -0.11374406 19.79146726 -0.09765625 16.9921875 C-0.09443359 16.00605469 -0.09121094 15.01992187 -0.08789062 14.00390625 C-0.07951172 12.97136719 -0.07113281 11.93882812 -0.0625 10.875 C-0.05798828 9.83472656 -0.05347656 8.79445312 -0.04882812 7.72265625 C-0.03701952 5.14838038 -0.02055075 2.57421854 0 0 Z " fill="#445A48" transform="translate(22,141)"/>
<path d="M0 0 C8.57142857 -0.28571429 8.57142857 -0.28571429 12 2 C12.33 1.34 12.66 0.68 13 0 C13.62648437 0.56589844 14.25296875 1.13179688 14.8984375 1.71484375 C15.71570313 2.44832031 16.53296875 3.18179688 17.375 3.9375 C18.18710938 4.66839844 18.99921875 5.39929688 19.8359375 6.15234375 C21.85924167 8.02989471 21.85924167 8.02989471 24 9 C24 10.98 24 12.96 24 15 C22.34375 15.7734375 22.34375 15.7734375 20 16 C17.34375 14.1640625 17.34375 14.1640625 14.5 11.625 C10.33922095 7.51998245 10.33922095 7.51998245 5 6 C2.90722329 7.45527615 2.90722329 7.45527615 1 9.5 C-1 11.53125 -1 11.53125 -3 13 C-5.25 12.71875 -5.25 12.71875 -7 12 C-7 11.34 -7 10.68 -7 10 C-6.34 10 -5.68 10 -5 10 C-5 9.34 -5 8.68 -5 8 C-5.99 7.67 -6.98 7.34 -8 7 C-6.68 7 -5.36 7 -4 7 C-2.68 4.69 -1.36 2.38 0 0 Z " fill="#3B5D46" transform="translate(233,122)"/>
<path d="M0 0 C0.66 0 1.32 0 2 0 C3.00496852 3.01490557 3.10335303 5.04181692 3.0625 8.1875 C3.05347656 9.08855469 3.04445313 9.98960937 3.03515625 10.91796875 C3.02355469 11.60503906 3.01195313 12.29210937 3 13 C3.66 12.34 4.32 11.68 5 11 C7 13 7 13 8 15 C9.32 15 10.64 15 12 15 C12 16.98 12 18.96 12 21 C11.34 20.01 10.68 19.02 10 18 C7.86906094 19.06546953 6.63412443 20.29159719 5 22 C4.34 21.34 3.68 20.68 3 20 C2.01 20 1.02 20 0 20 C0 20.66 0 21.32 0 22 C-4.29 22 -8.58 22 -13 22 C-13.99 19.03 -14.98 16.06 -16 13 C-15.34 12.67 -14.68 12.34 -14 12 C-14 10.35 -14 8.7 -14 7 C-15.98 7 -17.96 7 -20 7 C-20 11.29 -20 15.58 -20 20 C-20.66 20 -21.32 20 -22 20 C-22 15.05 -22 10.1 -22 5 C-17 4 -17 4 -12 5 C-12 9.62 -12 14.24 -12 19 C-8.04 19 -4.08 19 0 19 C0 12.73 0 6.46 0 0 Z " fill="#395E44" transform="translate(113,135)"/>
<path d="M0 0 C15.51 0 31.02 0 47 0 C47 0.66 47 1.32 47 2 C39.41 2.33 31.82 2.66 24 3 C24.99 4.32 25.98 5.64 27 7 C26 8 26 8 22.9375 8.0625 C21.968125 8.041875 20.99875 8.02125 20 8 C20 8.66 20 9.32 20 10 C18.5 11.625 18.5 11.625 17 13 C13.4213696 11.34832443 10.25179812 9.21713508 7 7 C8.65 5.35 10.3 3.7 12 2 C8.04 2 4.08 2 0 2 C0 1.34 0 0.68 0 0 Z " fill="#3A5843" transform="translate(122,184)"/>
<path d="M0 0 C7.26 0 14.52 0 22 0 C22 0.33 22 0.66 22 1 C20.6674398 1.17273929 19.33388058 1.33777128 18 1.5 C17.2575 1.5928125 16.515 1.685625 15.75 1.78125 C12.15705455 2.06705248 8.60461529 2.01287363 5 2 C15.89310941 2.74397756 26.77335522 3.26358937 37.6875 3.5625 C38.42948639 3.58367889 39.17147278 3.60485779 39.9359436 3.62667847 C54.95944543 4.05010432 69.97095564 4.11320986 85 4 C85 4.66 85 5.32 85 6 C74.21270374 6.04627129 63.42543096 6.08184264 52.6380558 6.10362434 C47.62943653 6.11407667 42.62088498 6.12826221 37.61230469 6.15087891 C32.78181667 6.17255575 27.95139394 6.1845577 23.12086105 6.18975449 C21.27480415 6.19345954 19.42875094 6.20069425 17.58272171 6.21146011 C15.00379876 6.22590657 12.42514809 6.22798083 9.84619141 6.22705078 C8.69281029 6.23783661 8.69281029 6.23783661 7.51612854 6.24884033 C2.22810432 6.22810432 2.22810432 6.22810432 0 4 C0 2.68 0 1.36 0 0 Z " fill="#366E50" transform="translate(27,185)"/>
<path d="M0 0 C-0.33 1.65 -0.66 3.3 -1 5 C-8.28600218 4.89133214 -15.57192801 4.77849223 -22.85778809 4.66066074 C-26.24273055 4.6060413 -29.62768196 4.55273585 -33.01269531 4.50268555 C-61.83385452 4.07132673 -61.83385452 4.07132673 -75 3 C-71.36341148 0.57560765 -69.59943072 0.72806751 -65.26538086 0.68115234 C-64.24541771 0.66608391 -64.24541771 0.66608391 -63.20484924 0.65071106 C-60.95818925 0.61983321 -58.71164886 0.60282842 -56.46484375 0.5859375 C-54.90449499 0.56722545 -53.34415634 0.547652 -51.78382874 0.5272522 C-47.67636092 0.47588367 -43.56886014 0.43629047 -39.46124268 0.39910889 C-35.27811456 0.35914817 -31.09512523 0.30798637 -26.91210938 0.2578125 C-5.01135183 0 -5.01135183 0 0 0 Z " fill="#2C5A39" transform="translate(263,185)"/>
<path d="M0 0 C3.44895996 1.54800716 5.02193382 4.51746846 6.98828125 7.6015625 C7.40787109 8.20613281 7.82746094 8.81070313 8.25976562 9.43359375 C10.57779582 13.01565688 11.20366378 14.51307258 10.9375 18.9375 C10.68613281 19.94039062 10.43476563 20.94328125 10.17578125 21.9765625 C8.52578125 22.3065625 6.87578125 22.6365625 5.17578125 22.9765625 C4.69367188 22.07292969 4.2115625 21.16929687 3.71484375 20.23828125 C3.0769026 19.04683233 2.43887735 17.85542844 1.80078125 16.6640625 C1.48367187 16.06916016 1.1665625 15.47425781 0.83984375 14.86132812 C-0.61808224 12.14290362 -2.11133578 9.54588696 -3.82421875 6.9765625 C-3.94921875 3.7890625 -3.94921875 3.7890625 -3.82421875 0.9765625 C-1.82421875 -0.0234375 -1.82421875 -0.0234375 0 0 Z " fill="#33583F" transform="translate(233.82421875,203.0234375)"/>
<path d="M0 0 C-1 1 -1 1 -3.81568909 1.12025452 C-5.70431923 1.1169236 -5.70431923 1.1169236 -7.63110352 1.11352539 C-8.32375305 1.11367142 -9.01640259 1.11381744 -9.7300415 1.1139679 C-12.02969446 1.11326874 -14.32926737 1.10547628 -16.62890625 1.09765625 C-18.21931412 1.09579208 -19.80972257 1.09436817 -21.40013123 1.09336853 C-25.5939593 1.08954329 -29.78775295 1.07971295 -33.98156738 1.06866455 C-38.25788914 1.05845057 -42.53421644 1.05387094 -46.81054688 1.04882812 C-55.20704708 1.03809069 -63.60351926 1.02101419 -72 1 C-72 0.34 -72 -0.32 -72 -1 C-63.20318134 -1.17707131 -54.40624362 -1.34301924 -45.60895157 -1.49477577 C-41.52400487 -1.56559207 -37.43920295 -1.64023595 -33.35449219 -1.72363281 C-29.41241389 -1.80397663 -25.47027274 -1.87425878 -21.52788544 -1.93757248 C-20.02393741 -1.963493 -18.52004731 -1.99303657 -17.01624298 -2.02626419 C-14.90963046 -2.07219189 -12.80317988 -2.10522442 -10.69628906 -2.13525391 C-9.49715881 -2.15746002 -8.29802856 -2.17966614 -7.06256104 -2.20254517 C-4.10663256 -2.00705224 -2.48037105 -1.55512592 0 0 Z " fill="#414F44" transform="translate(265,182)"/>
<path d="M0 0 C1.63984529 0.00031732 3.27971127 0.01165397 4.91943359 0.03173828 C6.21365738 0.03598312 6.21365738 0.03598312 7.5340271 0.04031372 C10.29544829 0.05152746 13.05654759 0.07663394 15.81787109 0.10205078 C17.68765808 0.11207905 19.55745015 0.12120517 21.42724609 0.12939453 C26.01591218 0.15147066 30.60433702 0.18600844 35.19287109 0.22705078 C35.19287109 0.55705078 35.19287109 0.88705078 35.19287109 1.22705078 C33.54287109 1.55705078 31.89287109 1.88705078 30.19287109 2.22705078 C30.19287109 2.55705078 30.19287109 2.88705078 30.19287109 3.22705078 C23.75787109 3.72205078 23.75787109 3.72205078 17.19287109 4.22705078 C17.52287109 5.21705078 17.85287109 6.20705078 18.19287109 7.22705078 C16.21287109 7.55705078 14.23287109 7.88705078 12.19287109 8.22705078 C12.52287109 6.90705078 12.85287109 5.58705078 13.19287109 4.22705078 C11.0684877 4.14626437 8.94323879 4.08795937 6.81787109 4.03955078 C5.63451172 4.00474609 4.45115234 3.96994141 3.23193359 3.93408203 C2.22904297 4.03076172 1.22615234 4.12744141 0.19287109 4.22705078 C-0.79712891 5.71205078 -0.79712891 5.71205078 -1.80712891 7.22705078 C-2.13712891 6.56705078 -2.46712891 5.90705078 -2.80712891 5.22705078 C-3.46712891 5.22705078 -4.12712891 5.22705078 -4.80712891 5.22705078 C-5.13712891 4.23705078 -5.46712891 3.24705078 -5.80712891 2.22705078 C-3.80712891 0.22705078 -3.80712891 0.22705078 0 0 Z " fill="#425D49" transform="translate(35.80712890625,193.77294921875)"/>
<path d="M0 0 C7.75 -0.125 7.75 -0.125 10 1 C12.86736654 1.12277212 15.71200295 1.18575442 18.58056641 1.20532227 C19.46843338 1.21522186 20.35630035 1.22512146 21.27107239 1.23532104 C24.21454169 1.26698388 27.15802715 1.29171237 30.1015625 1.31640625 C32.13895087 1.33697165 34.17633494 1.35796801 36.2137146 1.37937927 C41.5829317 1.43464273 46.95218757 1.48403314 52.32147217 1.53222656 C57.79768333 1.58241041 63.27383799 1.63811272 68.75 1.69335938 C79.49995177 1.80099321 90.24995254 1.90242656 101 2 C101 2.33 101 2.66 101 3 C51.5 3.495 51.5 3.495 1 4 C0.67 2.68 0.34 1.36 0 0 Z " fill="#3C6349" transform="translate(164,170)"/>
<path d="M0 0 C14.85 0 29.7 0 45 0 C42 3 42 3 40.0827179 3.36076355 C39.00016975 3.3507708 39.00016975 3.3507708 37.89575195 3.34057617 C36.6648156 3.34023628 36.6648156 3.34023628 35.40901184 3.33988953 C34.0870002 3.31666374 34.0870002 3.31666374 32.73828125 3.29296875 C31.37959175 3.28660149 31.37959175 3.28660149 29.99345398 3.28010559 C27.09950067 3.26330848 24.20624294 3.2256545 21.3125 3.1875 C19.35092151 3.17245449 17.38933211 3.15876585 15.42773438 3.14648438 C10.61822144 3.11340157 5.80922867 3.06161222 1 3 C0.67 2.01 0.34 1.02 0 0 Z " fill="#416653" transform="translate(210,194)"/>
<path d="M0 0 C0.66 0 1.32 0 2 0 C2.66 1.32 3.32 2.64 4 4 C4.99 3.34 5.98 2.68 7 2 C7 2.99 7 3.98 7 5 C6.34 5 5.68 5 5 5 C5 5.99 5 6.98 5 8 C7.64 7.67 10.28 7.34 13 7 C13 10 13 10 12 12 C10.68 11.34 9.36 10.68 8 10 C7.34 11.98 6.68 13.96 6 16 C6.99 16.33 7.98 16.66 9 17 C8.6875 18.9375 8.6875 18.9375 8 21 C7.01 21.33 6.02 21.66 5 22 C5 20.68 5 19.36 5 18 C4.34 17.67 3.68 17.34 3 17 C3.66 17 4.32 17 5 17 C5 15.02 5 13.04 5 11 C3.68 11 2.36 11 1 11 C0.67 11.66 0.34 12.32 0 13 C0 12.01 0 11.02 0 10 C-0.66 10 -1.32 10 -2 10 C-1.67 9.01 -1.34 8.02 -1 7 C-0.01 7 0.98 7 2 7 C1.34 4.69 0.68 2.38 0 0 Z " fill="#375E44" transform="translate(144,73)"/>
<path d="M0 0 C3.21351132 4.28468175 3.36713595 5.03475523 3.29296875 10.078125 C3.28330078 11.23828125 3.27363281 12.3984375 3.26367188 13.59375 C3.23853516 14.8003125 3.21339844 16.006875 3.1875 17.25 C3.17396484 18.47203125 3.16042969 19.6940625 3.14648438 20.953125 C3.1111398 23.96919498 3.0617956 26.98437487 3 30 C-0.23499538 29.27828297 -1.99799081 28.75736848 -4 26 C-4.3984375 23.58984375 -4.3984375 23.58984375 -4.375 20.9375 C-4.38273437 20.05964844 -4.39046875 19.18179688 -4.3984375 18.27734375 C-4.26695313 17.52582031 -4.13546875 16.77429688 -4 16 C-3.01 15.34 -2.02 14.68 -1 14 C-0.67 17.63 -0.34 21.26 0 25 C0 16.75 0 8.5 0 0 Z " fill="#375440" transform="translate(62,211)"/>
<path d="M0 0 C0.33 0.66 0.66 1.32 1 2 C1.99 2.33 2.98 2.66 4 3 C4 8.94 4 14.88 4 21 C5.32 21.33 6.64 21.66 8 22 C7.01 22.66 6.02 23.32 5 24 C4.01 23.67 3.02 23.34 2 23 C1.67 20.03 1.34 17.06 1 14 C0.34 14 -0.32 14 -1 14 C-1.33 14.99 -1.66 15.98 -2 17 C-3 12.25 -3 12.25 -3 10 C-3.96113866 8.63838689 -4.95884159 7.30144802 -6 6 C-4.68 5.67 -3.36 5.34 -2 5 C-1.67 6.32 -1.34 7.64 -1 9 C-0.01 8.67 0.98 8.34 2 8 C2 6.35 2 4.7 2 3 C1.34 3 0.68 3 0 3 C0 2.01 0 1.02 0 0 Z " fill="#3E6048" transform="translate(74,133)"/>
<path d="M0 0 C0.66 0.66 1.32 1.32 2 2 C1.625 5.625 1.625 5.625 1 9 C-0.32 9 -1.64 9 -3 9 C-5.0625 6.6875 -5.0625 6.6875 -7 4 C-7.98230498 2.9826127 -8.97469597 1.97403883 -10 1 C-9.67 0.01 -9.34 -0.98 -9 -2 C-5.23876576 -3.88061712 -3.20993457 -2.28074298 0 0 Z " fill="#2E5539" transform="translate(250,206)"/>
<path d="M0 0 C0 5.94 0 11.88 0 18 C-6.6 18 -13.2 18 -20 18 C-20 17.34 -20 16.68 -20 16 C-14.39 16 -8.78 16 -3 16 C-3 11.05 -3 6.1 -3 1 C-1 0 -1 0 0 0 Z " fill="#3A5F43" transform="translate(258,138)"/>
<path d="M0 0 C1.98 0 3.96 0 6 0 C6 3.96 6 7.92 6 12 C4.35 12.33 2.7 12.66 1 13 C-1 11 -1 11 -1.23046875 8.65234375 C-1.21628906 7.75644531 -1.20210938 6.86054688 -1.1875 5.9375 C-1.18105469 5.03902344 -1.17460938 4.14054688 -1.16796875 3.21484375 C-1 1 -1 1 0 0 Z " fill="#3D5745" transform="translate(82,139)"/>
<path d="M0 0 C0.66 0 1.32 0 2 0 C2.94137255 2.82411765 3.11725382 4.52918032 3.09765625 7.44921875 C3.09443359 8.29677734 3.09121094 9.14433594 3.08789062 10.01757812 C3.07951172 10.89865234 3.07113281 11.77972656 3.0625 12.6875 C3.05798828 13.58017578 3.05347656 14.47285156 3.04882812 15.39257812 C3.03705004 17.59508073 3.01911481 19.79754885 3 22 C5.97 22 8.94 22 12 22 C11.67 22.66 11.34 23.32 11 24 C7.7 24 4.4 24 1 24 C-0.25248502 21.49502996 -0.11374406 19.79146726 -0.09765625 16.9921875 C-0.09443359 16.00605469 -0.09121094 15.01992187 -0.08789062 14.00390625 C-0.07951172 12.97136719 -0.07113281 11.93882812 -0.0625 10.875 C-0.05798828 9.83472656 -0.05347656 8.79445312 -0.04882812 7.72265625 C-0.03701952 5.14838038 -0.02055075 2.57421854 0 0 Z " fill="#375B45" transform="translate(22,141)"/>
<path d="M0 0 C1.98 0 3.96 0 6 0 C6.76173392 4.3164922 7.16063604 7.74433453 6 12 C2.25 13.125 2.25 13.125 0 12 C-0.44921875 9.78515625 -0.44921875 9.78515625 -0.6875 7.0625 C-0.81705078 5.71865234 -0.81705078 5.71865234 -0.94921875 4.34765625 C-1 2 -1 2 0 0 Z " fill="#385846" transform="translate(104,139)"/>
<path d="M0 0 C0.33 0.66 0.66 1.32 1 2 C1.66 2 2.32 2 3 2 C3.66 5.3 4.32 8.6 5 12 C5.12375 10.370625 5.2475 8.74125 5.375 7.0625 C5.5859375 4.28515625 5.5859375 4.28515625 6 2 C6.66 1.67 7.32 1.34 8 1 C8 5.95 8 10.9 8 16 C3 15 3 15 1.19921875 13.296875 C-0.29893008 10.42745639 -0.30246278 8.46895793 -0.1875 5.25 C-0.16042969 4.26515625 -0.13335937 3.2803125 -0.10546875 2.265625 C-0.07066406 1.51796875 -0.03585938 0.7703125 0 0 Z " fill="#36583F" transform="translate(44,210)"/>
<path d="M0 0 C0.66 0 1.32 0 2 0 C2 2.31 2 4.62 2 7 C-4.93 7 -11.86 7 -19 7 C-18.67 5.02 -18.34 3.04 -18 1 C-17.34 1.66 -16.68 2.32 -16 3 C-13.26565038 3.3063859 -10.61720179 3.5113336 -7.875 3.625 C-7.12089844 3.66367188 -6.36679688 3.70234375 -5.58984375 3.7421875 C-3.72696816 3.83651031 -1.86351745 3.91934662 0 4 C0 2.68 0 1.36 0 0 Z " fill="#3D6046" transform="translate(174,150)"/>
<path d="M0 0 C0.66 0 1.32 0 2 0 C2.64834654 1.269553 3.29357815 2.54069706 3.9375 3.8125 C4.29714844 4.52019531 4.65679687 5.22789062 5.02734375 5.95703125 C7.20213355 10.52496323 7.08135681 14.03723471 7 19 C5.5 17.75 5.5 17.75 4 16 C4 14.68 4 13.36 4 12 C3.34 12 2.68 12 2 12 C2 12.66 2 13.32 2 14 C1.01 14 0.02 14 -1 14 C-1 11.69 -1 9.38 -1 7 C-0.01 7.495 -0.01 7.495 1 8 C0.67 5.36 0.34 2.72 0 0 Z " fill="#34573E" transform="translate(85,198)"/>
<path d="M0 0 C13.365 0.495 13.365 0.495 27 1 C24.56159764 3.43840236 22.14759102 4.62292893 19 6 C18.34 5.67 17.68 5.34 17 5 C13.27525397 4.46789342 9.75896696 4 6 4 C6 3.34 6 2.68 6 2 C3.03 1.505 3.03 1.505 0 1 C0 0.67 0 0.34 0 0 Z " fill="#224B33" transform="translate(176,140)"/>
<path d="M0 0 C2 3 2 3 1.75 5.625 C1.5025 6.40875 1.255 7.1925 1 8 C-1.573329 9.2866645 -3.50223038 9.16824551 -6.375 9.1875 C-7.80972656 9.20876953 -7.80972656 9.20876953 -9.2734375 9.23046875 C-12.06145406 8.99480546 -13.67834794 8.53528604 -16 7 C-16.75 4.875 -16.75 4.875 -17 3 C-15.35 3 -13.7 3 -12 3 C-12 3.99 -12 4.98 -12 6 C-9.69 6.33 -7.38 6.66 -5 7 C-4.34 5.68 -3.68 4.36 -3 3 C-2.34 3 -1.68 3 -1 3 C-0.67 2.01 -0.34 1.02 0 0 Z " fill="#395740" transform="translate(65,147)"/>
<path d="M0 0 C2 0.75 2 0.75 4 3.75 C4.53916146 6.4102023 4.73370098 9.04262663 5 11.75 C-1.75 10.125 -1.75 10.125 -4 6.75 C-4.125 3.5625 -4.125 3.5625 -4 0.75 C-2 -0.25 -2 -0.25 0 0 Z " fill="#2B5C31" transform="translate(234,203.25)"/>
<path d="M0 0 C10.23 0 20.46 0 31 0 C31.33 1.32 31.66 2.64 32 4 C31.34 3.67 30.68 3.34 30 3 C27.91914695 2.86939561 25.8344964 2.79728457 23.75 2.75390625 C22.5021875 2.72103516 21.254375 2.68816406 19.96875 2.65429688 C17.32300409 2.59310098 14.677165 2.53580894 12.03125 2.48242188 C10.7834375 2.44826172 9.535625 2.41410156 8.25 2.37890625 C7.10015625 2.3538501 5.9503125 2.32879395 4.765625 2.30297852 C2 2 2 2 0 0 Z " fill="#47644F" transform="translate(182,129)"/>
<path d="M0 0 C2.31 0 4.62 0 7 0 C8.125 5.75 8.125 5.75 7 8 C4.69 8 2.38 8 0 8 C-1.125 2.25 -1.125 2.25 0 0 Z " fill="#324C3B" transform="translate(243,144)"/>
<path d="M0 0 C1.25425781 0.01804688 2.50851563 0.03609375 3.80078125 0.0546875 C5.22970703 0.08949219 5.22970703 0.08949219 6.6875 0.125 C5.6975 2.105 4.7075 4.085 3.6875 6.125 C3.0275 4.805 2.3675 3.485 1.6875 2.125 C-1.2825 2.125 -4.2525 2.125 -7.3125 2.125 C-7.3125 4.105 -7.3125 6.085 -7.3125 8.125 C-6.3225 8.455 -5.3325 8.785 -4.3125 9.125 C-5.6325 9.125 -6.9525 9.125 -8.3125 9.125 C-10.2925 5.66 -10.2925 5.66 -12.3125 2.125 C-8.09353134 0.07601713 -4.65877854 -0.08707997 0 0 Z " fill="#2B5235" transform="translate(43.3125,196.875)"/>
<path d="M0 0 C0.66 0 1.32 0 2 0 C2 4.29 2 8.58 2 13 C4.64 13 7.28 13 10 13 C10 13.99 10 14.98 10 16 C8.52093108 16.02689216 7.04172517 16.04634621 5.5625 16.0625 C4.32693359 16.07990234 4.32693359 16.07990234 3.06640625 16.09765625 C1 16 1 16 0 15 C-0.26218917 13.04814727 -0.46028318 11.08748327 -0.625 9.125 C-0.72039062 8.05507812 -0.81578125 6.98515625 -0.9140625 5.8828125 C-1 3 -1 3 0 0 Z " fill="#3D5E45" transform="translate(142,141)"/>
<path d="M0 0 C0.66 0.66 1.32 1.32 2 2 C1.01 3.485 1.01 3.485 0 5 C2.31 5 4.62 5 7 5 C6.67 5.99 6.34 6.98 6 8 C5.34 8 4.68 8 4 8 C4 11.96 4 15.92 4 20 C3.34 19.67 2.68 19.34 2 19 C1.55078125 17.0390625 1.55078125 17.0390625 1.3125 14.625 C1.22613281 13.83351562 1.13976562 13.04203125 1.05078125 12.2265625 C1 10 1 10 2 7 C1.01 6.67 0.02 6.34 -1 6 C-1.8125 4.0625 -1.8125 4.0625 -2 2 C-1.34 1.34 -0.68 0.68 0 0 Z " fill="#365942" transform="translate(176,136)"/>
<path d="M0 0 C2 3 2 3 1.6875 4.875 C1.460625 5.57625 1.23375 6.2775 1 7 C0.65939189 8.66519519 0.32441604 10.33157466 0 12 C-2.31 11.67 -4.62 11.34 -7 11 C-7 10.34 -7 9.68 -7 9 C-6.01 8.67 -5.02 8.34 -4 8 C-3.896875 7.236875 -3.79375 6.47375 -3.6875 5.6875 C-2.95635961 2.82940576 -2.23048087 1.84257115 0 0 Z " fill="#395746" transform="translate(223,132)"/>
<path d="M0 0 C0.99 0.33 1.98 0.66 3 1 C4.33979115 8.26366109 5.43069422 14.70345948 4 22 C3.34 22 2.68 22 2 22 C2.020625 20.824375 2.04125 19.64875 2.0625 18.4375 C2.0625 14.54820119 1.70404476 10.8331326 1 7 C0.67 6.67 0.34 6.34 0 6 C-0.04080783 4.00041636 -0.04254356 1.99954746 0 0 Z " fill="#37563E" transform="translate(141,225)"/>
<path d="M0 0 C2.64 0 5.28 0 8 0 C8.66 1.98 9.32 3.96 10 6 C6.7 6 3.4 6 0 6 C0 4.02 0 2.04 0 0 Z " fill="#41664E" transform="translate(127,150)"/>
<path d="M0 0 C1.134375 0.020625 2.26875 0.04125 3.4375 0.0625 C3.7675 2.3725 4.0975 4.6825 4.4375 7.0625 C2.1275 7.3925 -0.1825 7.7225 -2.5625 8.0625 C-3.2225 5.7525 -3.8825 3.4425 -4.5625 1.0625 C-3.5625 0.0625 -3.5625 0.0625 0 0 Z " fill="#2C5237" transform="translate(204.5625,146.9375)"/>
<path d="M0 0 C4.29 0 8.58 0 13 0 C12 3 12 3 10 4 C8.12620395 4.07033769 6.24998898 4.0843022 4.375 4.0625 C3.37210938 4.05347656 2.36921875 4.04445312 1.3359375 4.03515625 C0.56507812 4.02355469 -0.20578125 4.01195312 -1 4 C-0.67 2.68 -0.34 1.36 0 0 Z " fill="#4F6756" transform="translate(34,145)"/>
<path d="M0 0 C2.97 0 5.94 0 9 0 C10.4783226 2.95664519 10.06032783 5.74229737 10 9 C9.01 9 8.02 9 7 9 C7 6.69 7 4.38 7 2 C5.35 2 3.7 2 2 2 C2.33 3.32 2.66 4.64 3 6 C2.01 6 1.02 6 0 6 C0 4.02 0 2.04 0 0 Z " fill="#375640" transform="translate(36,199)"/>
<path d="M0 0 C2.31 0 4.62 0 7 0 C6.67 1.32 6.34 2.64 6 4 C6.99 4.33 7.98 4.66 9 5 C10.1875 8.5625 10.1875 8.5625 11 12 C7.48144841 10.59257936 6.61387166 9.33533477 5 6 C4.01 5.67 3.02 5.34 2 5 C2 3.68 2 2.36 2 1 C1.34 0.67 0.68 0.34 0 0 Z " fill="#36573E" transform="translate(87,193)"/>
<path d="M0 0 C3.99415824 1.36942568 6.88332834 3.14305098 10 6 C10.33 6.99 10.66 7.98 11 9 C7.18752628 8.70673279 4.6706646 8.49869932 1.5625 6.1875 C0 4 0 4 0 0 Z " fill="#496753" transform="translate(240,123)"/>
<path d="M0 0 C1.20806522 3.62419565 1.0268055 5.33283752 0 9 C-1.66666667 10.66666667 -3.33333333 12.33333333 -5 14 C-5.96670019 16.33375098 -6.46402202 18.51501116 -7 21 C-7.66 21 -8.32 21 -9 21 C-8.38367054 16.04001528 -6.20164371 12.06328034 -3.9375 7.6875 C-3.37192383 6.57665039 -3.37192383 6.57665039 -2.79492188 5.44335938 C-1.86871843 3.62612478 -0.93509371 1.81267596 0 0 Z " fill="#284831" transform="translate(37,92)"/>
<path d="M0 0 C-0.33 0.99 -0.66 1.98 -1 3 C-0.67 3.99 -0.34 4.98 0 6 C0.33 6.99 0.66 7.98 1 9 C-2.58912412 9 -3.10857029 8.33563446 -5.6875 6 C-6.31011719 5.443125 -6.93273437 4.88625 -7.57421875 4.3125 C-8.04472656 3.879375 -8.51523438 3.44625 -9 3 C-6.01800145 0.01800145 -4.21244839 0 0 0 Z " fill="#3B5843" transform="translate(197,197)"/>
<path d="M0 0 C0.99 0.33 1.98 0.66 3 1 C3.02715383 2.74991334 3.04646551 4.49994945 3.0625 6.25 C3.07410156 7.22453125 3.08570313 8.1990625 3.09765625 9.203125 C3.01195577 11.65758678 2.70706066 13.66168914 2 16 C1.34 16 0.68 16 0 16 C0 10.72 0 5.44 0 0 Z " fill="#305944" transform="translate(266,143)"/>
<path d="M0 0 C1.98 0 3.96 0 6 0 C6 0.66 6 1.32 6 2 C4.68 2 3.36 2 2 2 C2 5.3 2 8.6 2 12 C0.02 12.33 -1.96 12.66 -4 13 C-4 12.34 -4 11.68 -4 11 C-2.68 10.67 -1.36 10.34 0 10 C0 6.7 0 3.4 0 0 Z " fill="#3D5D44" transform="translate(228,144)"/>
<path d="M0 0 C1.98 0 3.96 0 6 0 C5.7834375 0.8353125 5.7834375 0.8353125 5.5625 1.6875 C4.97230872 4.11384195 4.476571 6.54906345 4 9 C3.01 9 2.02 9 1 9 C1 7.35 1 5.7 1 4 C0.34 4 -0.32 4 -1 4 C-0.67 2.68 -0.34 1.36 0 0 Z " fill="#305038" transform="translate(104,139)"/>
<path d="M0 0 C0 0.33 0 0.66 0 1 C-5.28 1.66 -10.56 2.32 -16 3 C-15.67 2.01 -15.34 1.02 -15 0 C-9.78376152 -2.25121871 -5.18847262 -2.39467967 0 0 Z " fill="#3C5344" transform="translate(187,165)"/>
<path d="M0 0 C0.33 0.66 0.66 1.32 1 2 C-5.23352019 4.3548854 -10.45688671 3.87557031 -17 3 C-17 2.34 -17 1.68 -17 1 C-8.585 0.505 -8.585 0.505 0 0 Z " fill="#43664D" transform="translate(146,175)"/>
<path d="M0 0 C3.63 0 7.26 0 11 0 C11 0.99 11 1.98 11 3 C6.28400182 3.92470553 3.32734391 4.22923777 -1 2 C-0.67 1.34 -0.34 0.68 0 0 Z " fill="#2F5C42" transform="translate(203,141)"/>
<path d="M0 0 C1.32 0 2.64 0 4 0 C3.67 0.99 3.34 1.98 3 3 C2.01 3.33 1.02 3.66 0 4 C0 5.32 0 6.64 0 8 C0.99 8.33 1.98 8.66 3 9 C3.6875 11.0625 3.6875 11.0625 4 13 C1.59071265 12.03628506 0.23992991 11.34789837 -1.25 9.1875 C-2.13068336 6.61884019 -2.28398813 4.69788724 -2 2 C-1.34 1.34 -0.68 0.68 0 0 Z " fill="#325D43" transform="translate(215,200)"/>
<path d="M0 0 C2.31 0.33 4.62 0.66 7 1 C6.67 1.99 6.34 2.98 6 4 C5.34 4 4.68 4 4 4 C3.67 5.32 3.34 6.64 3 8 C2.34 8 1.68 8 1 8 C0.67 5.36 0.34 2.72 0 0 Z " fill="#325A3F" transform="translate(55,198)"/>
<path d="M0 0 C6.75 1.875 6.75 1.875 9 3 C8.67 4.32 8.34 5.64 8 7 C4.66272214 5.82744291 2.22562513 4.81131596 0 2 C0 1.34 0 0.68 0 0 Z " fill="#3C634B" transform="translate(247,131)"/>
<path d="M0 0 C0 2.33333333 0 4.66666667 0 7 C-2.8125 7.6875 -2.8125 7.6875 -6 8 C-7.875 6.5625 -7.875 6.5625 -9 5 C-8.071875 4.54625 -7.14375 4.0925 -6.1875 3.625 C-2.96078611 2.0578367 -2.96078611 2.0578367 0 0 Z " fill="#2C4933" transform="translate(164,74)"/>
<path d="M0 0 C7.26 0 14.52 0 22 0 C22.33 0.66 22.66 1.32 23 2 C22.0625 4.125 22.0625 4.125 21 6 C20.34 4.68 19.68 3.36 19 2 C12.73 1.67 6.46 1.34 0 1 C0 0.67 0 0.34 0 0 Z " fill="#2A4432" transform="translate(245,168)"/>
<path d="M0 0 C0.33 0 0.66 0 1 0 C1.33 2.64 1.66 5.28 2 8 C-4.75 6.375 -4.75 6.375 -7 3 C-2.25 1.875 -2.25 1.875 0 3 C0 2.01 0 1.02 0 0 Z " fill="#274F34" transform="translate(237,207)"/>
<path d="M0 0 C0.66 0 1.32 0 2 0 C2.92844389 4.33273814 2.92844389 7.66726186 2 12 C1.01 11.67 0.02 11.34 -1 11 C-2.41687119 6.74938644 -1.19320039 4.28148375 0 0 Z " fill="#395D42" transform="translate(137,144)"/>
<path d="M0 0 C-0.33 0.99 -0.66 1.98 -1 3 C-3.64 2.34 -6.28 1.68 -9 1 C-9.66 2.32 -10.32 3.64 -11 5 C-11 3.02 -11 1.04 -11 -1 C-6.82518761 -2.39160413 -4.09766916 -1.36588972 0 0 Z " fill="#3C5E44" transform="translate(140,71)"/>
<path d="M0 0 C0.33 0.66 0.66 1.32 1 2 C-4.83799592 3.69832609 -9.93107371 4.25287193 -16 4 C-10.87447606 1.33068994 -5.83702609 -0.35375916 0 0 Z " fill="#28452D" transform="translate(128,31)"/>
<path d="M0 0 C0.66 0 1.32 0 2 0 C3.26264601 4.29299643 2.62950412 6.87831311 1 11 C-0.32 11 -1.64 11 -3 11 C-2.690625 10.29875 -2.38125 9.5975 -2.0625 8.875 C-0.96697322 5.91063343 -0.43577008 3.12301892 0 0 Z " fill="#385640" transform="translate(183,256)"/>
<path d="M0 0 C0 0.66 0 1.32 0 2 C-4.75 3.125 -4.75 3.125 -7 2 C-6.67 3.32 -6.34 4.64 -6 6 C-6.66 6 -7.32 6 -8 6 C-8 5.34 -8 4.68 -8 4 C-8.99 4.33 -9.98 4.66 -11 5 C-11.33 4.34 -11.66 3.68 -12 3 C-8.2391768 -0.7608232 -5.0273023 -0.25136512 0 0 Z " fill="#365840" transform="translate(170,91)"/>
<path d="M0 0 C2 3 2 3 1.625 5.6875 C1.41875 6.450625 1.2125 7.21375 1 8 C-0.98 8 -2.96 8 -5 8 C-4.6875 6.0625 -4.6875 6.0625 -4 4 C-3.01 3.67 -2.02 3.34 -1 3 C-0.67 2.01 -0.34 1.02 0 0 Z " fill="#3F5F46" transform="translate(65,147)"/>
<path d="M0 0 C3.63 0.33 7.26 0.66 11 1 C11.33 2.65 11.66 4.3 12 6 C11.67 5.34 11.34 4.68 11 4 C8.03 4 5.06 4 2 4 C1.34 2.68 0.68 1.36 0 0 Z " fill="#3A5A42" transform="translate(184,143)"/>
<path d="M0 0 C0.66 0.33 1.32 0.66 2 1 C1.34 5.29 0.68 9.58 0 14 C-0.33 14 -0.66 14 -1 14 C-1.41846009 12.42249576 -1.80896389 10.83755752 -2.1875 9.25 C-2.40792969 8.36828125 -2.62835937 7.4865625 -2.85546875 6.578125 C-3 4 -3 4 -1.55078125 1.671875 C-1.03902344 1.12015625 -0.52726562 0.5684375 0 0 Z " fill="#3A5B42" transform="translate(33,140)"/>
<path d="M0 0 C0.33 0 0.66 0 1 0 C1.10477512 5.78591511 0.99250545 11.29309366 0 17 C-0.33 17 -0.66 17 -1 17 C-1.22126178 14.54220024 -1.42750395 12.08472352 -1.625 9.625 C-1.68945312 8.92632812 -1.75390625 8.22765625 -1.8203125 7.5078125 C-1.96119739 5.67630889 -1.98761659 3.83687252 -2 2 C-1.34 1.34 -0.68 0.68 0 0 Z " fill="#375A41" transform="translate(144,121)"/>
<path d="M0 0 C0.66 0 1.32 0 2 0 C3.41933513 4.25800538 3.72651677 8.22911538 2 12.4375 C1.67 12.953125 1.34 13.46875 1 14 C-0.20568053 9.32798795 -0.09382426 4.78503708 0 0 Z " fill="#3D513E" transform="translate(113,135)"/>
<path d="M0 0 C4.29 0 8.58 0 13 0 C12.67 0.99 12.34 1.98 12 3 C10.37509046 3.02698189 8.75005367 3.04638757 7.125 3.0625 C5.76761719 3.07990234 5.76761719 3.07990234 4.3828125 3.09765625 C2 3 2 3 0 2 C0 1.34 0 0.68 0 0 Z " fill="#345E42" transform="translate(139,30)"/>
<path d="M0 0 C3 1 3 1 4 3 C3.91348369 4.54613014 3.75997364 6.08909387 3.5625 7.625 C3.40974609 8.85089844 3.40974609 8.85089844 3.25390625 10.1015625 C3.17011719 10.72804687 3.08632812 11.35453125 3 12 C2.67 12 2.34 12 2 12 C0.86235649 7.73383684 0 4.43513689 0 0 Z " fill="#355B3E" transform="translate(104,212)"/>
<path d="M0 0 C0.66 0 1.32 0 2 0 C2.125 7.625 2.125 7.625 1 11 C0.34 11 -0.32 11 -1 11 C-1.0270043 9.54176788 -1.04639787 8.08339325 -1.0625 6.625 C-1.07410156 5.81289062 -1.08570313 5.00078125 -1.09765625 4.1640625 C-1 2 -1 2 0 0 Z " fill="#405D48" transform="translate(235,145)"/>
<path d="M0 0 C2.64 0.33 5.28 0.66 8 1 C8.33 1.99 8.66 2.98 9 4 C6.03 4 3.06 4 0 4 C0 2.68 0 1.36 0 0 Z " fill="#3D5845" transform="translate(137,268)"/>
<path d="M0 0 C0.886875 0.185625 1.77375 0.37125 2.6875 0.5625 C5.85178811 0.98042484 7.94839642 0.80777742 11 0 C11 0.99 11 1.98 11 3 C9.02 3 7.04 3 5 3 C4.67 3.66 4.34 4.32 4 5 C2 3.625 2 3.625 0 2 C0 1.34 0 0.68 0 0 Z " fill="#355B3F" transform="translate(137,189)"/>
<path d="M0 0 C0.33 0.66 0.66 1.32 1 2 C1.66 2 2.32 2 3 2 C3.33 2.99 3.66 3.98 4 5 C1.36 5 -1.28 5 -4 5 C-4.33 4.01 -4.66 3.02 -5 2 C-3.35 1.34 -1.7 0.68 0 0 Z " fill="#316742" transform="translate(118,167)"/>
<path d="M0 0 C1.4540625 0.0309375 1.4540625 0.0309375 2.9375 0.0625 C1.9475 0.5575 1.9475 0.5575 0.9375 1.0625 C0.9375 3.3725 0.9375 5.6825 0.9375 8.0625 C0.2775 8.0625 -0.3825 8.0625 -1.0625 8.0625 C-1.3925 6.4125 -1.7225 4.7625 -2.0625 3.0625 C-2.3925 3.7225 -2.7225 4.3825 -3.0625 5.0625 C-3.625 3.125 -3.625 3.125 -4.0625 1.0625 C-3.0625 0.0625 -3.0625 0.0625 0 0 Z " fill="#294C37" transform="translate(85.0625,138.9375)"/>
<path d="M0 0 C0.99 0.33 1.98 0.66 3 1 C3 2.98 3 4.96 3 7 C4.32 7.33 5.64 7.66 7 8 C6.01 8.66 5.02 9.32 4 10 C3.01 9.67 2.02 9.34 1 9 C0.67 6.03 0.34 3.06 0 0 Z " fill="#385D43" transform="translate(75,147)"/>
<path d="M0 0 C2.31 0 4.62 0 7 0 C7.33 1.65 7.66 3.3 8 5 C7.01 5 6.02 5 5 5 C5 4.01 5 3.02 5 2 C3.35 2.33 1.7 2.66 0 3 C0 2.01 0 1.02 0 0 Z " fill="#336345" transform="translate(243,144)"/>
<path d="M0 0 C3.3 0 6.6 0 10 0 C9.01 1.485 9.01 1.485 8 3 C4.375 3.1875 4.375 3.1875 1 3 C0.67 2.01 0.34 1.02 0 0 Z " fill="#335F40" transform="translate(92,117)"/>
<path d="M0 0 C1.875 0.1875 1.875 0.1875 4 1 C5.3125 3.4375 5.3125 3.4375 6 6 C5.67 6.66 5.34 7.32 5 8 C4.34 8 3.68 8 3 8 C0 2.25 0 2.25 0 0 Z " fill="#34533D" transform="translate(132,202)"/>
<path d="M0 0 C0.99 0.33 1.98 0.66 3 1 C3 2.32 3 3.64 3 5 C4.32 5.33 5.64 5.66 7 6 C5.125 7.0625 5.125 7.0625 3 8 C2.34 7.67 1.68 7.34 1 7 C0.59270772 4.67843403 0.25561323 2.3431213 0 0 Z " fill="#294A33" transform="translate(86,193)"/>
<path d="M0 0 C0 0.99 0 1.98 0 3 C-4.43076923 5.09230769 -4.43076923 5.09230769 -7.3125 4.625 C-7.869375 4.41875 -8.42625 4.2125 -9 4 C-3.375 0 -3.375 0 0 0 Z " fill="#3A5943" transform="translate(163,169)"/>
<path d="M0 0 C3.3 0 6.6 0 10 0 C9.67 0.66 9.34 1.32 9 2 C6.35139573 2.59355614 3.70802678 2.74209269 1 3 C0.67 2.01 0.34 1.02 0 0 Z " fill="#30523F" transform="translate(156,82)"/>
<path d="M0 0 C3.375 -0.125 3.375 -0.125 7 0 C7.66 0.66 8.32 1.32 9 2 C8 3 8 3 4.4375 3.0625 C3.303125 3.041875 2.16875 3.02125 1 3 C0.67 2.01 0.34 1.02 0 0 Z " fill="#415748" transform="translate(210,194)"/>
<path d="M0 0 C2.97 0.495 2.97 0.495 6 1 C5.34 2.65 4.68 4.3 4 6 C3.01 5.67 2.02 5.34 1 5 C0.67 3.35 0.34 1.7 0 0 Z " fill="#334B3B" transform="translate(246,210)"/>
<path d="M0 0 C1.32 0.66 2.64 1.32 4 2 C4 2.66 4 3.32 4 4 C4.66 4.33 5.32 4.66 6 5 C1.73173127 5 1.06117568 4.62386487 -2 2 C-1.34 1.34 -0.68 0.68 0 0 Z " fill="#415C48" transform="translate(206,200)"/>
<path d="M0 0 C3.4375 0.8125 3.4375 0.8125 7 2 C7.33 2.99 7.66 3.98 8 5 C2.46153846 4.38461538 2.46153846 4.38461538 0.125 2.4375 C-0.24625 1.963125 -0.6175 1.48875 -1 1 C-0.67 0.67 -0.34 0.34 0 0 Z " fill="#385B44" transform="translate(131,169)"/>
<path d="M0 0 C1.32 0 2.64 0 4 0 C4.33 1.32 4.66 2.64 5 4 C3.02 4.33 1.04 4.66 -1 5 C-0.67 3.35 -0.34 1.7 0 0 Z " fill="#526358" transform="translate(67,145)"/>
<path d="M0 0 C1.32 0 2.64 0 4 0 C4.66 2.31 5.32 4.62 6 7 C3.00675737 5.9024777 2.15389099 5.32317108 0.75 2.375 C0.5025 1.59125 0.255 0.8075 0 0 Z " fill="#39513F" transform="translate(110,123)"/>
<path d="M0 0 C0 0.99 0 1.98 0 3 C-2.88834003 5.10770759 -4.38462395 6 -8 6 C-6.72879117 2.18637351 -4.19078006 0 0 0 Z " fill="#2B4A34" transform="translate(86,45)"/>
<path d="M0 0 C0 1.65 0 3.3 0 5 C-1.65 5 -3.3 5 -5 5 C-5.33 4.01 -5.66 3.02 -6 2 C-1.125 0 -1.125 0 0 0 Z " fill="#38503F" transform="translate(110,261)"/>
<path d="M0 0 C0.99 0.33 1.98 0.66 3 1 C3 3.31 3 5.62 3 8 C2.34 8 1.68 8 1 8 C0.34 5.69 -0.32 3.38 -1 1 C-0.67 0.67 -0.34 0.34 0 0 Z " fill="#335C3E" transform="translate(215,226)"/>
<path d="M0 0 C1.485 0.99 1.485 0.99 3 2 C3.66 1.34 4.32 0.68 5 0 C5 1.65 5 3.3 5 5 C3.35 4.67 1.7 4.34 0 4 C0 2.68 0 1.36 0 0 Z " fill="#405A49" transform="translate(47,221)"/>
<path d="M0 0 C2.35448165 2.55068845 2.98327924 3.71017358 3.1875 7.25 C3.125625 8.1575 3.06375 9.065 3 10 C2.34 10 1.68 10 1 10 C0.63720544 8.71073008 0.28503302 7.41846728 -0.0625 6.125 C-0.35833984 5.04605469 -0.35833984 5.04605469 -0.66015625 3.9453125 C-1 2 -1 2 0 0 Z " fill="#375841" transform="translate(75,208)"/>
<path d="M0 0 C3.26954202 0.56371414 4.82575883 1.49962266 7 4 C6.67 4.99 6.34 5.98 6 7 C3.95880212 5.38405168 1.95927063 3.7143618 0 2 C0 1.34 0 0.68 0 0 Z " fill="#3A5840" transform="translate(199,202)"/>
<path d="M0 0 C2.31 0 4.62 0 7 0 C4 2 4 2 2 2 C2.33 3.32 2.66 4.64 3 6 C2.01 6 1.02 6 0 6 C0 4.02 0 2.04 0 0 Z " fill="#486750" transform="translate(36,199)"/>
<path d="M0 0 C0.598125 0.20625 1.19625 0.4125 1.8125 0.625 C1.8125 1.285 1.8125 1.945 1.8125 2.625 C-0.8275 2.955 -3.4675 3.285 -6.1875 3.625 C-4.74381887 0.73763775 -3.28406529 -0.56298262 0 0 Z " fill="#375C41" transform="translate(104.1875,190.375)"/>
<path d="M0 0 C2.475 0.495 2.475 0.495 5 1 C4.67 2.32 4.34 3.64 4 5 C2.68 5.33 1.36 5.66 0 6 C0 4.02 0 2.04 0 0 Z " fill="#35593F" transform="translate(121,165)"/>
<path d="M0 0 C-1.125 1.5 -1.125 1.5 -3 3 C-6.1875 3.1875 -6.1875 3.1875 -9 3 C-9 2.34 -9 1.68 -9 1 C-6.04335481 -0.4783226 -3.25770263 -0.06032783 0 0 Z " fill="#274431" transform="translate(68,136)"/>
<path d="M0 0 C0.66 0 1.32 0 2 0 C2 2.64 2 5.28 2 8 C0.35 7.67 -1.3 7.34 -3 7 C-2.01 6.67 -1.02 6.34 0 6 C0 4.02 0 2.04 0 0 Z " fill="#3C5443" transform="translate(164,262)"/>
<path d="M0 0 C0.66 0 1.32 0 2 0 C2.33 2.31 2.66 4.62 3 7 C2.01 7.33 1.02 7.66 0 8 C0 5.36 0 2.72 0 0 Z " fill="#375840" transform="translate(173,232)"/>
<path d="M0 0 C0.66 0 1.32 0 2 0 C2.33 1.65 2.66 3.3 3 5 C1.68 5.33 0.36 5.66 -1 6 C-0.67 4.02 -0.34 2.04 0 0 Z " fill="#2C5D46" transform="translate(196,220)"/>
<path d="M0 0 C1.98 0.99 1.98 0.99 4 2 C4 3.65 4 5.3 4 7 C3.34 7 2.68 7 2 7 C1.34 4.69 0.68 2.38 0 0 Z " fill="#315A3C" transform="translate(101,203)"/>
<path d="M0 0 C1.65 1.32 3.3 2.64 5 4 C4.67 4.99 4.34 5.98 4 7 C2.35 5.35 0.7 3.7 -1 2 C-0.67 1.34 -0.34 0.68 0 0 Z " fill="#395844" transform="translate(147,197)"/>
<path d="M0 0 C2.64 0 5.28 0 8 0 C8.33 0.66 8.66 1.32 9 2 C5.67465243 3.10844919 3.37817425 2.84454356 0 2 C0 1.34 0 0.68 0 0 Z " fill="#3A5C3F" transform="translate(78,194)"/>
<path d="M0 0 C0.33 0 0.66 0 1 0 C1 2.64 1 5.28 1 8 C0.34 8 -0.32 8 -1 8 C-1.625 5.6875 -1.625 5.6875 -2 3 C-1.34 2.01 -0.68 1.02 0 0 Z " fill="#395845" transform="translate(77,244)"/>
<path d="M0 0 C1.67542976 0.28604898 3.34385343 0.61781233 5 1 C5 1.99 5 2.98 5 4 C3.68 4.33 2.36 4.66 1 5 C0.34 3.68 -0.32 2.36 -1 1 C-0.67 0.67 -0.34 0.34 0 0 Z " fill="#38493C" transform="translate(255,194)"/>
<path d="M0 0 C0.99 0.99 1.98 1.98 3 3 C-0.37817425 3.84454356 -2.67465243 4.10844919 -6 3 C-6 2.67 -6 2.34 -6 2 C-4.02 2 -2.04 2 0 2 C0 1.34 0 0.68 0 0 Z " fill="#254031" transform="translate(146,172)"/>
<path d="M0 0 C0 0.33 0 0.66 0 1 C-2.97 1 -5.94 1 -9 1 C-9 0.34 -9 -0.32 -9 -1 C-5.23375329 -2.25541557 -3.62811066 -1.37061958 0 0 Z " fill="#425D46" transform="translate(187,165)"/>
<path d="M0 0 C2.97 0.495 2.97 0.495 6 1 C6 1.99 6 2.98 6 4 C3.03 3.505 3.03 3.505 0 3 C0 2.01 0 1.02 0 0 Z " fill="#42614C" transform="translate(115,164)"/>
<path d="M0 0 C-0.33 2.31 -0.66 4.62 -1 7 C-1.66 7 -2.32 7 -3 7 C-3 5.02 -3 3.04 -3 1 C-1 0 -1 0 0 0 Z " fill="#3F5D48" transform="translate(258,138)"/>
<path d="M0 0 C0.66 0.33 1.32 0.66 2 1 C1.67 3.31 1.34 5.62 1 8 C0.01 7.34 -0.98 6.68 -2 6 C-1.34 4.02 -0.68 2.04 0 0 Z " fill="#395545" transform="translate(132,95)"/>
<path d="M0 0 C4.8 3.44615385 4.8 3.44615385 5.8125 6.25 C5.874375 6.8275 5.93625 7.405 6 8 C1.3125 4.38671875 1.3125 4.38671875 0 3 C0 2.01 0 1.02 0 0 Z " fill="#3D5845" transform="translate(223,57)"/>
</svg>
